<svg xmlns="http://www.w3.org/2000/svg" viewBox="0 0 500 500"><g id="freepik--background-complete--inject-178"><rect y="382.4" width="500" height="0.25" style="fill:#ebebeb"></rect><rect x="416.78" y="398.49" width="33.12" height="0.25" style="fill:#ebebeb"></rect><rect x="322.53" y="401.21" width="8.69" height="0.25" style="fill:#ebebeb"></rect><rect x="396.59" y="389.21" width="19.19" height="0.25" style="fill:#ebebeb"></rect><rect x="52.46" y="390.89" width="43.19" height="0.25" style="fill:#ebebeb"></rect><rect x="104.56" y="390.89" width="6.33" height="0.25" style="fill:#ebebeb"></rect><rect x="131.47" y="395.11" width="93.68" height="0.25" style="fill:#ebebeb"></rect><path d="M237,337.8H43.91a5.71,5.71,0,0,1-5.7-5.71V60.66A5.71,5.71,0,0,1,43.91,55H237a5.71,5.71,0,0,1,5.71,5.71V332.09A5.71,5.71,0,0,1,237,337.8ZM43.91,55.2a5.46,5.46,0,0,0-5.45,5.46V332.09a5.46,5.46,0,0,0,5.45,5.46H237a5.47,5.47,0,0,0,5.46-5.46V60.66A5.47,5.47,0,0,0,237,55.2Z" style="fill:#ebebeb"></path><path d="M453.31,337.8H260.21a5.72,5.72,0,0,1-5.71-5.71V60.66A5.72,5.72,0,0,1,260.21,55h193.1A5.71,5.71,0,0,1,459,60.66V332.09A5.71,5.71,0,0,1,453.31,337.8ZM260.21,55.2a5.47,5.47,0,0,0-5.46,5.46V332.09a5.47,5.47,0,0,0,5.46,5.46h193.1a5.47,5.47,0,0,0,5.46-5.46V60.66a5.47,5.47,0,0,0-5.46-5.46Z" style="fill:#ebebeb"></path><rect x="270.76" y="182.95" width="135.3" height="198.38" transform="translate(676.82 564.27) rotate(180)" style="fill:#f0f0f0"></rect><rect x="275.54" y="189.19" width="125.74" height="36.64" transform="translate(676.82 415.02) rotate(180)" style="fill:#e0e0e0"></rect><rect x="394.14" y="195.12" width="7.14" height="30.71" transform="translate(795.42 420.95) rotate(180)" style="fill:#ebebeb"></rect><rect x="359.6" y="195.12" width="7.14" height="30.71" transform="translate(726.34 420.95) rotate(180)" style="fill:#ebebeb"></rect><rect x="317.73" y="194.74" width="7.14" height="30.71" transform="translate(602.25 471.7) rotate(-170.22)" style="fill:#ebebeb"></rect><rect x="385.29" y="199.17" width="7.14" height="26.66" transform="translate(777.72 425) rotate(180)" style="fill:#ebebeb"></rect><rect x="368.87" y="199.17" width="7.14" height="26.66" transform="translate(744.88 425) rotate(180)" style="fill:#ebebeb"></rect><rect x="327.43" y="199.17" width="7.14" height="26.66" transform="translate(662 425) rotate(180)" style="fill:#ebebeb"></rect><rect x="347.24" y="198.71" width="7.14" height="26.66" transform="translate(647.28 495.13) rotate(-167.47)" style="fill:#ebebeb"></rect><rect x="379.11" y="193.6" width="3.57" height="32.23" transform="translate(761.79 419.43) rotate(180)" style="fill:#ebebeb"></rect><rect x="336.62" y="193.6" width="3.57" height="32.23" transform="translate(676.82 419.43) rotate(180)" style="fill:#ebebeb"></rect><rect x="275.54" y="231.63" width="125.74" height="36.64" style="fill:#e0e0e0"></rect><rect x="275.54" y="237.56" width="7.14" height="30.71" style="fill:#ebebeb"></rect><rect x="310.08" y="237.56" width="7.14" height="30.71" style="fill:#ebebeb"></rect><rect x="351.95" y="237.18" width="7.14" height="30.71" transform="translate(-37.72 64.04) rotate(-9.78)" style="fill:#ebebeb"></rect><rect x="284.39" y="241.61" width="7.14" height="26.66" style="fill:#ebebeb"></rect><rect x="300.81" y="241.61" width="7.14" height="26.66" style="fill:#ebebeb"></rect><rect x="342.25" y="241.61" width="7.14" height="26.66" style="fill:#ebebeb"></rect><rect x="322.44" y="241.15" width="7.14" height="26.66" transform="translate(-47.43 76.77) rotate(-12.53)" style="fill:#ebebeb"></rect><rect x="294.14" y="236.04" width="3.57" height="32.23" style="fill:#ebebeb"></rect><rect x="336.62" y="236.04" width="3.57" height="32.23" style="fill:#ebebeb"></rect><rect x="394.14" y="237.56" width="7.14" height="30.71" transform="translate(795.42 505.83) rotate(180)" style="fill:#ebebeb"></rect><rect x="385.29" y="241.61" width="7.14" height="26.66" transform="translate(777.72 509.88) rotate(180)" style="fill:#ebebeb"></rect><rect x="368.87" y="241.61" width="7.14" height="26.66" transform="translate(744.88 509.88) rotate(180)" style="fill:#ebebeb"></rect><rect x="379.11" y="236.04" width="3.57" height="32.23" transform="translate(761.79 504.31) rotate(180)" style="fill:#ebebeb"></rect><rect x="275.54" y="274.07" width="125.74" height="36.64" transform="translate(676.82 584.78) rotate(180)" style="fill:#e0e0e0"></rect><rect x="321.97" y="280" width="7.14" height="30.71" transform="translate(651.08 590.71) rotate(180)" style="fill:#ebebeb"></rect><rect x="280.1" y="279.62" width="7.14" height="30.71" transform="translate(513.12 633.83) rotate(-170.22)" style="fill:#ebebeb"></rect><rect x="347.65" y="284.05" width="7.14" height="26.66" transform="translate(702.45 594.76) rotate(180)" style="fill:#ebebeb"></rect><rect x="331.24" y="284.05" width="7.14" height="26.66" transform="translate(669.62 594.76) rotate(180)" style="fill:#ebebeb"></rect><rect x="289.8" y="284.05" width="7.14" height="26.66" transform="translate(586.74 594.76) rotate(180)" style="fill:#ebebeb"></rect><rect x="309.61" y="283.59" width="7.14" height="26.66" transform="translate(554.5 654.7) rotate(-167.47)" style="fill:#ebebeb"></rect><rect x="341.48" y="278.48" width="3.57" height="32.23" transform="translate(686.53 589.19) rotate(180)" style="fill:#ebebeb"></rect><rect x="298.99" y="278.48" width="3.57" height="32.23" transform="translate(601.56 589.19) rotate(180)" style="fill:#ebebeb"></rect><rect x="362.27" y="279.62" width="7.14" height="30.71" transform="translate(676.28 647.79) rotate(-170.22)" style="fill:#ebebeb"></rect><rect x="371.97" y="284.05" width="7.14" height="26.66" transform="translate(751.09 594.76) rotate(180)" style="fill:#ebebeb"></rect><rect x="391.78" y="283.59" width="7.14" height="26.66" transform="translate(716.9 672.53) rotate(-167.47)" style="fill:#ebebeb"></rect><rect x="381.17" y="278.48" width="3.57" height="32.23" transform="translate(765.91 589.19) rotate(180)" style="fill:#ebebeb"></rect><rect x="406.06" y="182.95" width="23.34" height="198.89" style="fill:#e0e0e0"></rect><path d="M104.42,140.24s-1.17-7.72,4.46-12.68,5.14-7.9,3.53-8.28-3.09,4.57-5.57,5.93c0,0-.08-7.06,2.44-9.66s3.83-9.3,1.44-9.42-2.64,4-3.14,6.88-3.16,7-3.16,7-.52-6.32-2.15-8.92,2.71-8.55,1-11.15-4.64,2.36-4.4,7.93,4,11.52,3.1,17.34c0,0-1.64-4.09-3.11-4.46s-3-3.08-4-4.08-2.23,2.47,0,5.69,7.93,11.83,7.06,18.8Z" style="fill:#e6e6e6"></path><path d="M107.79,136.73l1.84,11.58a5.88,5.88,0,0,1-5.81,6.81h-2A5.88,5.88,0,0,1,96,148.31l1.84-11.58Z" style="fill:#e6e6e6"></path><rect x="79.88" y="150.85" width="130.44" height="6.7" transform="translate(290.19 308.4) rotate(180)" style="fill:#e0e0e0"></rect><rect x="198.57" y="126.14" width="5.75" height="24.7" transform="translate(402.88 276.99) rotate(180)" style="fill:#ebebeb"></rect><rect x="170.78" y="126.14" width="5.75" height="24.7" transform="translate(347.31 276.99) rotate(180)" style="fill:#ebebeb"></rect><rect x="137.1" y="125.83" width="5.75" height="24.7" transform="translate(254.43 298.14) rotate(-170.22)" style="fill:#ebebeb"></rect><rect x="191.45" y="129.4" width="5.75" height="21.45" transform="translate(388.64 280.25) rotate(180)" style="fill:#ebebeb"></rect><rect x="178.24" y="129.4" width="5.75" height="21.45" transform="translate(362.22 280.25) rotate(180)" style="fill:#ebebeb"></rect><rect x="144.9" y="129.4" width="5.75" height="21.45" transform="translate(295.54 280.25) rotate(180)" style="fill:#ebebeb"></rect><rect x="160.84" y="129.03" width="5.75" height="21.45" transform="translate(293.21 311.69) rotate(-167.47)" style="fill:#ebebeb"></rect><rect x="186.48" y="124.92" width="2.87" height="25.93" transform="translate(375.83 275.76) rotate(180)" style="fill:#ebebeb"></rect><rect x="152.3" y="124.92" width="2.87" height="25.93" transform="translate(307.47 275.76) rotate(180)" style="fill:#ebebeb"></rect><rect x="79.88" y="200.88" width="130.44" height="6.7" style="fill:#e0e0e0"></rect><rect x="85.88" y="176.18" width="5.75" height="24.7" style="fill:#ebebeb"></rect><rect x="113.67" y="176.18" width="5.75" height="24.7" style="fill:#ebebeb"></rect><rect x="147.35" y="175.87" width="5.75" height="24.7" transform="translate(-29.78 28.25) rotate(-9.78)" style="fill:#ebebeb"></rect><rect x="93" y="179.43" width="5.75" height="21.45" style="fill:#ebebeb"></rect><rect x="106.21" y="179.43" width="5.75" height="21.45" style="fill:#ebebeb"></rect><rect x="139.55" y="179.43" width="5.75" height="21.45" style="fill:#ebebeb"></rect><rect x="123.61" y="179.06" width="5.75" height="21.45" transform="translate(-38.15 31.95) rotate(-12.53)" style="fill:#ebebeb"></rect><rect x="100.84" y="174.95" width="2.87" height="25.93" style="fill:#ebebeb"></rect><rect x="135.02" y="174.95" width="2.87" height="25.93" style="fill:#ebebeb"></rect><rect x="169.8" y="181.33" width="28" height="19.33" style="fill:#ebebeb"></rect><circle cx="345.67" cy="120.53" r="19.53" style="fill:#e0e0e0"></circle><circle cx="345.67" cy="120.53" r="16.61" style="fill:#f0f0f0"></circle><polyline points="344.89 109.14 344.89 120.75 337.19 116.39" style="fill:#f0f0f0"></polyline><path d="M344.89,121.75a1.05,1.05,0,0,1-.49-.13l-7.7-4.36a1,1,0,0,1-.38-1.36,1,1,0,0,1,1.37-.38l6.2,3.51v-9.89a1,1,0,1,1,2,0v11.61a1,1,0,0,1-1,1Z" style="fill:#e0e0e0"></path></g><g id="freepik--Shadow--inject-178"><ellipse id="freepik--path--inject-178" cx="250" cy="416.24" rx="193.89" ry="11.32" style="fill:#f5f5f5"></ellipse></g><g id="freepik--Test--inject-178"><rect x="223.49" y="127.68" width="199.02" height="188.44" style="fill:#263238"></rect><rect x="223.49" y="127.68" width="199.02" height="188.44" style="fill:#fff;opacity:0.7000000000000001;isolation:isolate"></rect><rect x="223.49" y="127.68" width="199.02" height="9.59" style="fill:#263238"></rect><rect x="415.93" y="137.28" width="6.58" height="179.02" style="opacity:0.2;isolation:isolate"></rect><rect x="417.31" y="141.52" width="3.96" height="24.94" rx="1.68" style="fill:#fff;opacity:0.6000000000000001;isolation:isolate"></rect><path d="M411.58,261h-184a.51.51,0,0,1-.5-.5.5.5,0,0,1,.5-.5h184a.5.5,0,0,1,.5.5A.5.5,0,0,1,411.58,261Z" style="opacity:0.2;isolation:isolate"></path><path d="M411.58,218h-184a.51.51,0,0,1-.5-.5.5.5,0,0,1,.5-.5h184a.5.5,0,0,1,.5.5A.5.5,0,0,1,411.58,218Z" style="opacity:0.2;isolation:isolate"></path><rect x="227.63" y="141.51" width="183.96" height="28.13" style="fill:#263238"></rect><path d="M420.22,132.48a2.41,2.41,0,1,1-2.41-2.41A2.41,2.41,0,0,1,420.22,132.48Z" style="fill:#fff;opacity:0.6000000000000001;isolation:isolate"></path><path d="M411.72,132.48a2.41,2.41,0,1,1-2.41-2.41A2.41,2.41,0,0,1,411.72,132.48Z" style="fill:#fff;opacity:0.6000000000000001;isolation:isolate"></path><path d="M403.22,132.48a2.41,2.41,0,1,1-2.41-2.41A2.41,2.41,0,0,1,403.22,132.48Z" style="fill:#fff;opacity:0.6000000000000001;isolation:isolate"></path><path d="M235.51,188.48a5.89,5.89,0,1,1,5.89-5.89A5.9,5.9,0,0,1,235.51,188.48Z" style="opacity:0.4;isolation:isolate"></path><path d="M236.23,180.35v4.47h-1v-3.64h-.89v-.83Z" style="fill:#fff"></path><rect x="245.8" y="176.88" width="158.97" height="2.99" rx="1.14" style="opacity:0.4;isolation:isolate"></rect><rect x="245.8" y="184.65" width="158.97" height="2.99" rx="1.14" style="opacity:0.4;isolation:isolate"></rect><rect x="245.8" y="192.41" width="104.77" height="2.99" rx="1.14" style="opacity:0.4;isolation:isolate"></rect><circle cx="248.54" cy="207.31" r="2.73" style="opacity:0.2;isolation:isolate"></circle><path d="M250.42,207.31a1.89,1.89,0,1,1-1.88-1.88A1.88,1.88,0,0,1,250.42,207.31Z" style="fill:#fff"></path><rect x="256.32" y="205.82" width="28.74" height="2.99" rx="1.14" style="opacity:0.4;isolation:isolate"></rect><path d="M306.74,207.25a2.73,2.73,0,1,1-2.73-2.73A2.73,2.73,0,0,1,306.74,207.25Z" style="opacity:0.2;isolation:isolate"></path><path d="M305.9,207.25a1.89,1.89,0,1,1-1.89-1.88A1.89,1.89,0,0,1,305.9,207.25Z" style="fill:#263238"></path><rect x="311.8" y="205.76" width="28.75" height="2.99" rx="1.14" style="opacity:0.4;isolation:isolate"></rect><path d="M362.22,207.19a2.73,2.73,0,1,1-2.73-2.73A2.73,2.73,0,0,1,362.22,207.19Z" style="opacity:0.2;isolation:isolate"></path><path d="M361.38,207.19a1.89,1.89,0,1,1-1.89-1.89A1.89,1.89,0,0,1,361.38,207.19Z" style="fill:#fff"></path><rect x="367.28" y="205.69" width="28.74" height="2.99" rx="1.14" style="opacity:0.4;isolation:isolate"></rect><circle cx="235.51" cy="232.41" r="5.89" style="opacity:0.4;isolation:isolate"></circle><path d="M237.21,233.84v.84h-3.37V234l1.72-1.63c.4-.38.47-.61.47-.82s-.24-.56-.72-.56a1.09,1.09,0,0,0-.92.45l-.75-.49a2.08,2.08,0,0,1,1.77-.83c1,0,1.66.51,1.66,1.32a1.77,1.77,0,0,1-.75,1.41l-1,1Z" style="fill:#fff"></path><rect x="245.8" y="226.73" width="158.97" height="2.99" rx="1.14" style="opacity:0.4;isolation:isolate"></rect><rect x="245.8" y="234.49" width="32.06" height="2.99" rx="1.14" style="opacity:0.4;isolation:isolate"></rect><circle cx="248.54" cy="249.27" r="2.73" style="opacity:0.2;isolation:isolate"></circle><circle cx="248.54" cy="249.27" r="1.89" style="fill:#fff"></circle><rect x="256.32" y="247.78" width="28.74" height="2.99" rx="1.14" style="opacity:0.4;isolation:isolate"></rect><circle cx="304.01" cy="249.21" r="2.73" style="opacity:0.2;isolation:isolate"></circle><circle cx="304.01" cy="249.21" r="1.89" style="fill:#fff"></circle><rect x="311.8" y="247.71" width="28.75" height="2.99" rx="1.14" style="opacity:0.4;isolation:isolate"></rect><path d="M362.22,249.15a2.73,2.73,0,1,1-2.73-2.73A2.73,2.73,0,0,1,362.22,249.15Z" style="opacity:0.2;isolation:isolate"></path><path d="M361.38,249.15a1.89,1.89,0,1,1-1.89-1.89A1.89,1.89,0,0,1,361.38,249.15Z" style="fill:#263238"></path><rect x="367.28" y="247.65" width="28.74" height="2.99" rx="1.14" style="opacity:0.4;isolation:isolate"></rect><path d="M235.51,281.56a5.89,5.89,0,1,1,5.89-5.89A5.89,5.89,0,0,1,235.51,281.56Z" style="opacity:0.4;isolation:isolate"></path><path d="M237.17,276.5c0,.75-.58,1.44-1.85,1.44a3,3,0,0,1-1.7-.48l.4-.79a2.2,2.2,0,0,0,1.27.4c.52,0,.84-.21.84-.57s-.25-.55-.84-.55h-.47v-.68l.92-1h-1.9v-.83H237v.67l-1,1.15A1.26,1.26,0,0,1,237.17,276.5Z" style="fill:#fff"></path><rect x="245.8" y="269.95" width="158.97" height="2.99" rx="1.14" style="opacity:0.4;isolation:isolate"></rect><rect x="245.8" y="277.71" width="158.97" height="2.99" rx="1.14" style="opacity:0.4;isolation:isolate"></rect><rect x="245.8" y="285.48" width="80.77" height="2.99" rx="1.14" style="opacity:0.4;isolation:isolate"></rect><rect x="301.28" y="297.84" width="5.46" height="5.46" rx="0.4" style="opacity:0.4;isolation:isolate"></rect><rect x="301.94" y="298.5" width="4.15" height="4.15" transform="translate(604.59 -3.44) rotate(90)" style="fill:#fff;isolation:isolate"></rect><rect x="311.8" y="299.08" width="28.75" height="2.99" rx="1.14" style="opacity:0.4;isolation:isolate"></rect><path d="M303.79,301.77a.23.23,0,0,1-.17-.07l-1-.94a.26.26,0,0,1,0-.36.25.25,0,0,1,.36,0l.85.77,1.45-1.72a.25.25,0,0,1,.39.32L304,301.68a.28.28,0,0,1-.17.09Z" style="fill:#263238"></path><rect x="356.76" y="297.78" width="5.46" height="5.46" rx="0.4" style="opacity:0.4;isolation:isolate"></rect><rect x="357.42" y="298.44" width="4.15" height="4.15" transform="translate(660 -58.98) rotate(90)" style="fill:#fff;isolation:isolate"></rect><rect x="367.28" y="299.01" width="28.74" height="2.99" rx="1.14" style="opacity:0.4;isolation:isolate"></rect><path d="M359.27,301.71a.28.28,0,0,1-.17-.07l-1-.95a.25.25,0,1,1,.34-.36l.84.77,1.46-1.72a.25.25,0,1,1,.38.32l-1.62,1.92a.31.31,0,0,1-.18.09Z" style="fill:#263238"></path><rect x="245.8" y="297.9" width="5.46" height="5.46" rx="0.4" style="opacity:0.4;isolation:isolate"></rect><rect x="246.46" y="298.56" width="4.15" height="4.15" transform="translate(549.17 52.1) rotate(90)" style="fill:#fff;isolation:isolate"></rect><rect x="256.32" y="299.14" width="28.74" height="2.99" rx="1.14" style="opacity:0.4;isolation:isolate"></rect><path d="M236.45,154.68a3.83,3.83,0,1,1,3.82,3.61A3.61,3.61,0,0,1,236.45,154.68Zm6,0a2.19,2.19,0,1,0-2.19,2.23A2.14,2.14,0,0,0,242.46,154.68Z" style="fill:#fff"></path><path d="M250.68,155.1v3.07h-1.55v-2.83c0-.87-.4-1.27-1.09-1.27s-1.29.46-1.29,1.45v2.65H245.2V152.8h1.48v.63a2.36,2.36,0,0,1,1.78-.71A2.1,2.1,0,0,1,250.68,155.1Z" style="fill:#fff"></path><path d="M252.09,150.77h1.55v7.4h-1.55Z" style="fill:#fff"></path><path d="M254.9,151.19a.89.89,0,0,1,1-.87.87.87,0,0,1,1,.84,1,1,0,0,1-1.93,0Zm.19,1.61h1.56v5.37h-1.56Z" style="fill:#fff"></path><path d="M263.58,155.1v3.07H262v-2.83c0-.87-.4-1.27-1.09-1.27s-1.28.46-1.28,1.45v2.65h-1.56V152.8h1.49v.63a2.33,2.33,0,0,1,1.77-.71A2.11,2.11,0,0,1,263.58,155.1Z" style="fill:#fff"></path><path d="M270.27,155.93h-4.06a1.42,1.42,0,0,0,1.53,1.07,1.86,1.86,0,0,0,1.35-.51l.83.89a2.82,2.82,0,0,1-2.22.87,2.79,2.79,0,0,1-3.06-2.76,2.74,2.74,0,0,1,2.87-2.77,2.66,2.66,0,0,1,2.79,2.79C270.3,155.63,270.28,155.8,270.27,155.93Zm-4.08-.91h2.64a1.34,1.34,0,0,0-2.64,0Z" style="fill:#fff"></path><path d="M275.71,152.5h-2.23v-1.31h6.08v1.31h-2.23v5.67h-1.62Z" style="fill:#fff"></path><path d="M285,155.93h-4.06a1.42,1.42,0,0,0,1.53,1.07,1.86,1.86,0,0,0,1.35-.51l.83.89a2.82,2.82,0,0,1-2.22.87,2.79,2.79,0,0,1-3.06-2.76,2.74,2.74,0,0,1,2.86-2.77,2.66,2.66,0,0,1,2.8,2.79C285,155.63,285,155.8,285,155.93Zm-4.08-.91h2.64a1.34,1.34,0,0,0-2.64,0Z" style="fill:#fff"></path><path d="M285.54,157.67l.52-1.11a3.78,3.78,0,0,0,1.87.51c.72,0,1-.19,1-.48,0-.88-3.25,0-3.25-2.13,0-1,.92-1.74,2.49-1.74a4.38,4.38,0,0,1,2.06.47l-.52,1.11a3,3,0,0,0-1.54-.4c-.7,0-1,.22-1,.5,0,.92,3.24,0,3.24,2.15,0,1-.93,1.7-2.53,1.7A4.62,4.62,0,0,1,285.54,157.67Z" style="fill:#fff"></path><path d="M294.82,157.91a2.23,2.23,0,0,1-1.27.34,1.76,1.76,0,0,1-2-1.92v-2.21h-.83v-1.2h.83v-1.3h1.55v1.3h1.34v1.2H293.1v2.19a.62.62,0,0,0,.67.7,1.05,1.05,0,0,0,.63-.2Z" style="fill:#fff"></path><circle cx="395.28" cy="155.68" r="7.93" transform="translate(5.69 325.11) rotate(-45)" style="fill:#fff"></circle><path d="M402.3,152l-7,3.7v-7.93A7.93,7.93,0,0,1,402.3,152Z" style="opacity:0.2;isolation:isolate"></path></g><g id="freepik--Plant--inject-178"><path d="M380.39,399.78s4.32-20.43-3.55-31.49,7.11-.13,8.84,10.23c0,0,2.58-18.52-5.06-31.54s6.65-2.34,7.87,11.09c0,0,2.34-16.52-1.17-25.81s2.59-3.31,4.94,2.51-.73,20.23-.73,20.23,6.12-26.65,11.92-24.53-8.67,19.58-10.67,28.66c0,0,6.83-12.22,12-9.67s-8,3.81-14.08,22L388.59,380s6.29-12.06,10.4-8.25-12.19,10.37-16,28.65Z" style="fill:#263238"></path><path d="M381.24,401s.9-25.75,13.63-36.65-8.48-2.27-13.63,9.62c0,0,2.42-22.95,15.44-36.28s-7.27-4.77-12.72,10.94c0,0,2.12-20.48,9.09-30.55s-2.12-4.75-6.66,1.52S381.24,344,381.24,344s.6-33.74-7-32.92,4.54,26,4.24,37.5c0,0-4.55-16.67-11.51-15.17s8.48,7,10.3,30.58v10.87s-3.94-16.32-10-13,11.51,16.06,10.6,39.08Z" style="fill:#263238"></path><path d="M381.24,401s.9-25.75,13.63-36.65-8.48-2.27-13.63,9.62c0,0,2.42-22.95,15.44-36.28s-7.27-4.77-12.72,10.94c0,0,2.12-20.48,9.09-30.55s-2.12-4.75-6.66,1.52S381.24,344,381.24,344s.6-33.74-7-32.92,4.54,26,4.24,37.5c0,0-4.55-16.67-11.51-15.17s8.48,7,10.3,30.58v10.87s-3.94-16.32-10-13,11.51,16.06,10.6,39.08Z" style="fill:#fff;opacity:0.2;isolation:isolate"></path><path d="M372.09,406h15.42a11,11,0,0,1,11,11v2.07a0,0,0,0,1,0,0H361.1a0,0,0,0,1,0,0V417A11,11,0,0,1,372.09,406Z" transform="translate(759.61 825.09) rotate(180)" style="fill:#263238"></path><rect x="356.2" y="398.47" width="47.2" height="11.7" rx="4.21" transform="translate(759.61 808.64) rotate(180)" style="fill:#263238"></rect><rect x="356.2" y="398.47" width="47.2" height="11.7" rx="4.21" transform="translate(759.61 808.64) rotate(180)" style="fill:#fff;opacity:0.2;isolation:isolate"></rect></g><g id="freepik--Table--inject-178"><path d="M171.71,278.47a1.81,1.81,0,0,0,1.8,2.59h47.36a4.09,4.09,0,0,0,3.61-2.59l10-28.9a2.41,2.41,0,0,0,.15-.84,1.77,1.77,0,0,0-1.95-1.75H185.35a4.09,4.09,0,0,0-3.61,2.59Z" style="fill:#263238"></path><path d="M221.23,279.61a2,2,0,0,0,1.77-1.27l10-28.9a1,1,0,0,0,.06-.36c0-.4-.29-.65-.75-.65H185a2,2,0,0,0-1.77,1.27l-10,28.9a.79.79,0,0,0,.05.73.73.73,0,0,0,.64.28Z" style="fill:#263238"></path><path d="M221.23,279.61a2,2,0,0,0,1.77-1.27l10-28.9a1,1,0,0,0,.06-.36c0-.4-.29-.65-.75-.65H185a2,2,0,0,0-1.77,1.27l-10,28.9a.79.79,0,0,0,.05.73.73.73,0,0,0,.64.28Z" style="fill:#fff;opacity:0.8;isolation:isolate"></path><path d="M151.44,278.92v1.33l9.38,2.41h59.83a1.67,1.67,0,0,0,1.67-1.67v-2.07Z" style="fill:#263238"></path><polygon points="201.5 278.92 201.5 280.25 210.89 282.66 160.82 282.66 151.44 280.25 151.44 278.92 201.5 278.92" style="fill:#fff;opacity:0.2;isolation:isolate"></polygon><g style="opacity:0.2"><polygon points="230.02 255.22 182.15 255.22 184.01 250 231.88 250 230.02 255.22" style="fill:#263238"></polygon></g><g style="opacity:0.1;isolation:isolate"><path d="M227.62,261.94H179.75c-.14,0-.21-.11-.16-.26a.41.41,0,0,1,.34-.26h47.88c.13,0,.2.12.15.26A.38.38,0,0,1,227.62,261.94Z"></path></g><g style="opacity:0.1;isolation:isolate"><path d="M225,269.27H177.13c-.14,0-.21-.12-.16-.26a.41.41,0,0,1,.35-.26h47.87c.14,0,.21.11.16.26A.41.41,0,0,1,225,269.27Z"></path></g><g style="opacity:0.1;isolation:isolate"><path d="M222.39,276.6H174.52c-.14,0-.21-.12-.16-.26a.39.39,0,0,1,.34-.27h47.87c.14,0,.21.12.16.27A.4.4,0,0,1,222.39,276.6Z"></path></g><polygon points="206.47 418.97 211.68 418.97 221.05 288.53 214.13 288.53 206.47 418.97" style="fill:#263238"></polygon><polygon points="206.46 418.97 211.68 418.97 220.59 295.01 221.05 288.74 214.13 288.74 213.76 295.01 206.46 418.97" style="fill:#fff;opacity:0.2;isolation:isolate"></polygon><polygon points="213.76 294.7 220.59 294.7 221.05 288.74 214.13 288.74 213.76 294.7" style="opacity:0.2;isolation:isolate"></polygon><polygon points="168.2 418.97 173.41 418.97 174.26 288.53 167.35 288.53 168.2 418.97" style="fill:#263238"></polygon><polygon points="167.34 288.74 167.48 309.78 168.19 418.97 173.41 418.97 174.13 309.78 174.26 288.74 167.34 288.74" style="fill:#fff;opacity:0.30000000000000004;isolation:isolate"></polygon><polygon points="167.34 288.74 167.48 310.02 174.13 310.02 174.26 288.74 167.34 288.74" style="opacity:0.2;isolation:isolate"></polygon><polygon points="112.84 418.97 118.05 418.97 127.42 288.53 120.5 288.53 112.84 418.97" style="fill:#263238"></polygon><polygon points="112.84 418.97 118.05 418.97 126.97 295.01 127.42 288.74 120.5 288.74 120.13 295.01 112.84 418.97" style="fill:#fff;opacity:0.30000000000000004;isolation:isolate"></polygon><polygon points="120.13 294.7 126.97 294.7 127.42 288.74 120.5 288.74 120.13 294.7" style="opacity:0.2;isolation:isolate"></polygon><polygon points="266.12 418.97 271.33 418.97 263.67 288.53 256.75 288.53 266.12 418.97" style="fill:#263238"></polygon><polygon points="256.75 288.74 257.21 295.01 266.12 418.97 271.33 418.97 264.04 295.01 263.67 288.74 256.75 288.74" style="fill:#fff;opacity:0.30000000000000004;isolation:isolate"></polygon><polygon points="263.67 288.74 256.75 288.74 257.21 294.7 264.04 294.7 263.67 288.74" style="opacity:0.2;isolation:isolate"></polygon><path d="M117.18,285.26H267a2.16,2.16,0,0,1,2.16,2.16v4.37a0,0,0,0,1,0,0H115a0,0,0,0,1,0,0v-4.37A2.16,2.16,0,0,1,117.18,285.26Z" transform="translate(384.17 577.06) rotate(180)" style="fill:#263238"></path><rect x="115.02" y="285.26" width="154.13" height="3.27" transform="translate(384.17 573.79) rotate(180)" style="opacity:0.2;isolation:isolate"></rect><path d="M111.79,286.11H272.38a1.84,1.84,0,0,0,1.84-1.84h0a1.84,1.84,0,0,0-1.84-1.84H111.79a1.84,1.84,0,0,0-1.84,1.84h0A1.84,1.84,0,0,0,111.79,286.11Z" style="fill:#263238"></path><path d="M267.25,277.8a10.51,10.51,0,0,1-.85,4.63H229.81v-.87h.74V274h-.74v-.87H266.4A10.8,10.8,0,0,1,267.25,277.8Z" style="fill:#263238"></path><path d="M267.25,277.8a10.51,10.51,0,0,1-.85,4.63H229.81v-.87h.74V274h-.74v-.87H266.4A10.8,10.8,0,0,1,267.25,277.8Z" style="fill:#fff;opacity:0.2;isolation:isolate"></path><path d="M247.67,277.8a10.51,10.51,0,0,1-.85,4.63h-17v-.87h.74V274h-.74v-.87h17A10.8,10.8,0,0,1,247.67,277.8Z" style="opacity:0.2;isolation:isolate"></path><path d="M245.87,277.8a8.52,8.52,0,0,1-.69,3.76H230.55V274h14.63A8.82,8.82,0,0,1,245.87,277.8Z" style="fill:#fff;opacity:0.8;isolation:isolate"></path><path d="M261.29,277.8a10.51,10.51,0,0,1-.85,4.63h-6.81a10.51,10.51,0,0,0,.85-4.63,10.8,10.8,0,0,0-.85-4.64h6.81A10.8,10.8,0,0,1,261.29,277.8Z" style="fill:#fff;opacity:0.6000000000000001;isolation:isolate"></path><path d="M270.51,268.53a10.51,10.51,0,0,1-.85,4.63H233.07v-.87h.74v-7.53h-.74v-.87h36.59A10.86,10.86,0,0,1,270.51,268.53Z" style="fill:#263238"></path><path d="M250.93,268.53a10.51,10.51,0,0,1-.85,4.63h-17v-.87h.74v-7.53h-.74v-.87h17A10.86,10.86,0,0,1,250.93,268.53Z" style="opacity:0.2;isolation:isolate"></path><path d="M249.13,268.53a8.52,8.52,0,0,1-.69,3.76H233.81v-7.53h14.63A8.82,8.82,0,0,1,249.13,268.53Z" style="fill:#fff;opacity:0.8;isolation:isolate"></path><path d="M264.55,268.53a10.51,10.51,0,0,1-.85,4.63h-6.81a10.51,10.51,0,0,0,.85-4.63,10.86,10.86,0,0,0-.85-4.64h6.81A10.86,10.86,0,0,1,264.55,268.53Z" style="opacity:0.2;isolation:isolate"></path></g><g id="freepik--Character--inject-178"><g id="freepik--group--inject-178"><polygon points="147.75 396.67 144.53 411.57 136.9 411.44 140.09 396.67 147.75 396.67" style="fill:#ebb376"></polygon><polygon points="147.76 396.67 146.16 404.04 138.6 403.53 140.09 396.67 147.76 396.67" style="opacity:0.2;isolation:isolate"></polygon><path d="M145.68,411.19l.16,0s.17.06.19.08,0,0,0,0a.07.07,0,0,0,.06,0,9,9,0,0,0,2,.4,2,2,0,0,0,1.45-.29.93.93,0,0,0,.28-1,.7.7,0,0,0-.38-.54,3.18,3.18,0,0,0-2.12.39,2.69,2.69,0,0,0,.75-1.74.71.71,0,0,0-.64-.58,1.1,1.1,0,0,0-.85.2c-.8.69-.93,2.85-.93,3Zm.82-.44-.15.09a3.77,3.77,0,0,1,.64-2.33.51.51,0,0,1,.39-.14h.09c.25,0,.31.17.31.28A3.56,3.56,0,0,1,146.5,410.75Zm.11.38c.92-.51,2.23-1.06,2.72-.84a.33.33,0,0,1,.18.26.67.67,0,0,1-.17.63C149,411.5,148,411.48,146.61,411.13Z" style="fill:#263238"></path><path d="M145.5,410.26l-8.55-.53a.54.54,0,0,0-.6.48h0l-.84,6.75a1.36,1.36,0,0,0,1.25,1.43c3,.13,4.42.05,8.18.25A71.76,71.76,0,0,0,155,419c3.19-.31,2.8-3.46,1.42-3.61-3.26-.37-7.58-2.77-9.63-4.59A2.17,2.17,0,0,0,145.5,410.26Z" style="fill:#263238"></path><polygon points="192.42 396.67 189.2 411.57 181.56 411.44 184.76 396.67 192.42 396.67" style="fill:#ebb376"></polygon><polygon points="192.42 396.67 190.82 404.04 183.26 403.53 184.75 396.67 192.42 396.67" style="opacity:0.2;isolation:isolate"></polygon><path d="M190.34,411.19l.16,0s.17.06.2.08,0,0,0,0a.07.07,0,0,0,.06,0,9.12,9.12,0,0,0,2,.4,2,2,0,0,0,1.46-.29.93.93,0,0,0,.27-1,.67.67,0,0,0-.38-.54,3.18,3.18,0,0,0-2.12.39,2.76,2.76,0,0,0,.76-1.74.73.73,0,0,0-.65-.58,1.11,1.11,0,0,0-.85.2c-.8.69-.93,2.85-.93,3Zm.82-.44-.15.09a3.84,3.84,0,0,1,.64-2.33.52.52,0,0,1,.39-.14h.09c.25,0,.31.17.32.28A3.64,3.64,0,0,1,191.16,410.75Zm.11.38c.92-.51,2.23-1.06,2.72-.84a.33.33,0,0,1,.18.26.67.67,0,0,1-.16.63C193.62,411.5,192.62,411.48,191.27,411.13Z" style="fill:#263238"></path><path d="M190.16,410.26l-8.55-.53a.54.54,0,0,0-.6.48h0l-.84,6.75a1.36,1.36,0,0,0,1.25,1.43c3,.13,4.42.05,8.18.25a71.76,71.76,0,0,0,10.05.33c3.19-.31,2.8-3.46,1.43-3.61-3.27-.37-7.59-2.77-9.63-4.59A2.17,2.17,0,0,0,190.16,410.26Z" style="fill:#263238"></path><path d="M161.44,368.31a239.1,239.1,0,0,1-11.12,32.86l-13.94-1.06s5.72-22.34,7.79-42.8c1.28-12.63,1.17-23.08-2.53-23.89-2.33-.52-7.77-.5-14.75-.34v-26c19.58,4,39.06,11.6,40.54,17.68C169.5,333.33,165.88,351.45,161.44,368.31Z" style="fill:#263238"></path><path d="M161.44,368.31a239.1,239.1,0,0,1-11.12,32.86l-13.94-1.06s5.72-22.34,7.79-42.8c1.28-12.63,1.17-23.08-2.53-23.89-2.33-.52-7.77-.5-14.75-.34v-26c19.58,4,39.06,11.6,40.54,17.68C169.5,333.33,165.88,351.45,161.44,368.31Z" style="fill:#fff;opacity:0.4;isolation:isolate"></path><path d="M161.44,368.31c-5.2-3.3-11.29-7.17-17.27-11,1.28-12.63,1.17-23.08-2.53-23.89-2.33-.52-7.77-.5-14.75-.34v-26c19.58,4,39.06,11.6,40.54,17.68C169.5,333.33,165.88,351.45,161.44,368.31Z" style="opacity:0.2;isolation:isolate"></path><path d="M153.82,304.53l1.23-9.87-39.9-6.57S102.1,314,108.49,326.62c5.85,11.62,68.21,4.7,77.81,6.79S181,400.1,181,400.1L195,401.17s21.54-58.12,17.11-76.4C210.16,316.8,177.28,306.24,153.82,304.53Z" style="fill:#263238"></path><path d="M153.82,304.53l1.23-9.87-39.9-6.57S102.1,314,108.49,326.62c5.85,11.62,68.21,4.7,77.81,6.79S181,400.1,181,400.1L195,401.17s21.54-58.12,17.11-76.4C210.16,316.8,177.28,306.24,153.82,304.53Z" style="fill:#fff;opacity:0.6000000000000001;isolation:isolate"></path><path d="M175.77,224.24c-.34.59-.3,1.26.09,1.48s1-.08,1.31-.68.3-1.25-.08-1.48S176.14,223.67,175.77,224.24Z" style="fill:#263238"></path><path d="M175.14,221.05a.49.49,0,0,1-.2-.18.42.42,0,0,1,.21-.53,4,4,0,0,1,3.67.18.4.4,0,0,1,.13.54l0,0a.41.41,0,0,1-.56.11h0a3.17,3.17,0,0,0-2.89-.11A.4.4,0,0,1,175.14,221.05Z" style="fill:#263238"></path><path d="M176.33,223.48a24.72,24.72,0,0,0-.07,6.71,4,4,0,0,1-3.15-1.1Z" style="fill:#de5753"></path><path d="M172.75,231.84c-.24.29-.48.57-.74.83a10.35,10.35,0,0,1-5.42,3,10.83,10.83,0,0,1-1.59.21,9.46,9.46,0,0,1-7.56-3,9.56,9.56,0,0,1-1.95-3.24c-1.86-5,0-9,2.71-15.91a10.19,10.19,0,0,1,17-3.47C180.62,215.92,177,226.41,172.75,231.84Z" style="fill:#e4897b"></path><path d="M166.59,235.65a10.83,10.83,0,0,1-1.59.21,9.46,9.46,0,0,1-7.56-3,11.25,11.25,0,0,1,2.25-1.75A14.73,14.73,0,0,1,166.59,235.65Z" style="opacity:0.2;isolation:isolate"></path><path d="M144.06,235.91c.68,4.9,11.38,6.73,11.38,6.73s5.28,2.4,5.5.31c-2.19-2.53-2.43-4.74-1.67-6.67a9.52,9.52,0,0,1,2.15-3.11,19.56,19.56,0,0,1,1.56-1.44l-3.27-13.4C157.36,223.42,149.32,235.19,144.06,235.91Z" style="fill:#e4897b"></path><path d="M174.59,206.42s2.29-.29,4,4c1.48,3.59-2,4.37-1.85,8.19s-3.33,5.93-3.33,5.93-2.94,2.53-5.43,1.16c0,0-3.26,1.6-4.12,4.39s-5.91-2.25-10.46-1.48c0,0-3.07-2.88-2.85-9.86a24.27,24.27,0,0,1,2.19-8.76,11.9,11.9,0,0,1,6.53-6.48C164.51,201.17,173.62,202.93,174.59,206.42Z" style="fill:#263238"></path><path d="M167.39,223.62a4.8,4.8,0,0,0,.9,4c1.11,1.21,2.89-.33,3.62-2.45.62-1.89.84-4.85-.79-5.18S167.74,221.58,167.39,223.62Z" style="fill:#e4897b"></path><path d="M159.71,237.7a20.36,20.36,0,0,0-10.47-4.88,7.64,7.64,0,0,0-8.08,4.88l17.94,3.63Z" style="fill:#263238"></path><path d="M156.66,275.56l7.31,1.09a28.48,28.48,0,0,1,5.1-1.09,33.47,33.47,0,0,1,5.65,0S178,276.8,178,280c0,0-7.72,2.07-10.68.83L156.66,280Z" style="fill:#e4897b"></path><path d="M156.66,275.56l7.31,1.09a28.48,28.48,0,0,1,5.1-1.09,33.47,33.47,0,0,1,5.65,0S178,276.8,178,280c0,0-7.72,2.07-10.68.83L156.66,280Z" style="opacity:0.2;isolation:isolate"></path><path d="M168.54,240q-2.23,6.24-4,12c-.76,2.38-1.45,4.71-2.08,7-.54,1.89-1,3.72-1.49,5.5-.22.85-.44,1.7-.65,2.54-1.15,4.6-2.08,8.81-2.81,12.51a165.71,165.71,0,0,0-2.7,17.63l-41-5.13c1.42-7.05,2.53-13.2,4.08-19.84.85-3.64,1.83-7.42,3.08-11.57.88-3,1.9-6.15,3.12-9.59,4.11-11.81,7.91-15.08,7.91-15.08C147.74,233.38,168.54,240,168.54,240Z" style="fill:#263238"></path><path d="M182.18,276.32l7.31,1.1a28,28,0,0,1,5.1-1.1,34.74,34.74,0,0,1,5.65,0s3.31,1.24,3.31,4.41c0,0-7.72,2.07-10.69.83l-10.68-.83Z" style="fill:#e4897b"></path><polygon points="134.9 400.76 151.5 401.86 153.94 394.69 135.65 393.83 134.9 400.76" style="fill:#263238"></polygon><polygon points="134.9 400.76 151.5 401.86 153.94 394.69 135.65 393.83 134.9 400.76" style="fill:#fff;opacity:0.2"></polygon><polygon points="179.56 400.76 196.16 401.86 198.6 394.69 180.31 393.83 179.56 400.76" style="fill:#263238"></polygon><polygon points="179.56 400.76 196.16 401.86 198.6 394.69 180.31 393.83 179.56 400.76" style="fill:#fff;opacity:0.2"></polygon><polygon points="113.68 292.58 132.17 295.01 132.77 292.28 114.25 289.59 113.68 292.58"></polygon><polygon points="134.31 292.3 134.08 295.01 151.17 297.36 151.17 294.68 134.31 292.3"></polygon><polygon points="152.23 294.83 152.23 297.36 154.71 297.69 154.71 295.24 152.23 294.83"></polygon><path d="M164.53,252c-.76,2.38-1.45,4.71-2.08,7-.54,1.89-1,3.72-1.49,5.5-1.28-7,1-15.37,1-15.37Z" style="opacity:0.2;isolation:isolate"></path><path d="M167.3,242.36c3.34.67,5.07,23.87,5.81,26.94.65,2.68,16.38,8.12,16.38,8.12v3.77S172.09,280,168,278.32s-6.56-24.59-6.56-24.59Z" style="fill:#e4897b"></path><g style="opacity:0.2;isolation:isolate"><path d="M168.54,240q-2.23,6.24-4,12c-.76,2.38-1.45,4.71-2.08,7-.54,1.89-1,3.72-1.49,5.5-.22.85-.44,1.7-.65,2.54-1.15,4.6-2.08,8.81-2.81,12.51a165.71,165.71,0,0,0-2.7,17.63l-41-5.13c1.42-7.05,2.53-13.2,4.08-19.84.85-3.64,1.83-7.42,3.08-11.57.88-3,1.9-6.15,3.12-9.59,4.11-11.81,7.91-15.08,7.91-15.08C147.74,233.38,168.54,240,168.54,240Z" style="fill:#fff"></path></g><path d="M168.54,240c3.06,1,4.57,21,4.57,21L162,262.47l-2.3-8.22s.92-3.88,2.24-7.95C163.86,240.4,168.54,240,168.54,240Z" style="fill:#263238"></path></g><path d="M96.87,415.56a3.52,3.52,0,1,0-3.51,3.52A3.51,3.51,0,0,0,96.87,415.56Z" style="fill:#263238"></path><path d="M96.87,415.56a3.52,3.52,0,1,0-3.51,3.52A3.51,3.51,0,0,0,96.87,415.56Z" style="fill:#fff;opacity:0.2;isolation:isolate"></path><path d="M181.48,415.56a3.52,3.52,0,1,0-3.52,3.52A3.51,3.51,0,0,0,181.48,415.56Z" style="fill:#263238"></path><path d="M181.48,415.56a3.52,3.52,0,1,0-3.52,3.52A3.51,3.51,0,0,0,181.48,415.56Z" style="fill:#fff;opacity:0.2;isolation:isolate"></path><path d="M95.11,415.56a1.76,1.76,0,1,0-1.75,1.76A1.75,1.75,0,0,0,95.11,415.56Z" style="fill:#fff;opacity:0.2"></path><circle cx="177.96" cy="415.56" r="1.76" style="fill:#fff;opacity:0.2"></circle><path d="M138.57,400.14V362.33h-5.82v37.81c-22.64.58-36.4,8.5-39.16,10.23a1.11,1.11,0,0,0-.51.94v3.14a1.11,1.11,0,0,0,1.11,1.11h0a1.11,1.11,0,0,0,1-.56l1.34-2.36a127.51,127.51,0,0,1,36.25-6v6.22a1.44,1.44,0,0,0,1.44,1.43h2.94a1.44,1.44,0,0,0,1.44-1.43v-6.22a127.51,127.51,0,0,1,36.25,6l1.34,2.36a1.11,1.11,0,0,0,1,.56h0a1.11,1.11,0,0,0,1.11-1.11v-3.14a1.11,1.11,0,0,0-.51-.94C175,408.64,161.21,400.72,138.57,400.14Z" style="fill:#263238"></path><path d="M138.57,400.14V362.33h-5.82v37.81c-22.64.58-36.4,8.5-39.16,10.23a1.11,1.11,0,0,0-.51.94v3.14a1.11,1.11,0,0,0,1.11,1.11h0a1.11,1.11,0,0,0,1-.56l1.34-2.36a127.51,127.51,0,0,1,36.25-6v6.22a1.44,1.44,0,0,0,1.44,1.43h2.94a1.44,1.44,0,0,0,1.44-1.43v-6.22a127.51,127.51,0,0,1,36.25,6l1.34,2.36a1.11,1.11,0,0,0,1,.56h0a1.11,1.11,0,0,0,1.11-1.11v-3.14a1.11,1.11,0,0,0-.51-.94C175,408.64,161.21,400.72,138.57,400.14Z" style="opacity:0.2;isolation:isolate"></path><rect x="133.75" y="412.05" width="3.82" height="7.03" rx="0.77" style="fill:#263238"></rect><rect x="133.75" y="412.05" width="3.82" height="7.03" rx="0.77" style="fill:#fff;opacity:0.2;isolation:isolate"></rect><path d="M97.55,325.11h76.23a7.91,7.91,0,0,1,7.91,7.91v4.78a0,0,0,0,1,0,0H89.63a0,0,0,0,1,0,0V333A7.91,7.91,0,0,1,97.55,325.11Z" style="fill:#263238"></path><path d="M122.46,293.69h50.68a4,4,0,0,1,4,5L168,337.81h-2.09l7.72-34.32a4.05,4.05,0,0,0-4-4.94H123.5Z" style="fill:#263238"></path><path d="M141.64,339.18v33.08a1.93,1.93,0,0,1-1.92,1.92h-8.11a1.91,1.91,0,0,1-1.92-1.92V339.18Z" style="fill:#263238"></path><rect x="129.69" y="339.18" width="11.96" height="13.74" style="opacity:0.2;isolation:isolate"></rect><path d="M184.2,335.77v4a2,2,0,0,1-2,2h-93a2,2,0,0,1-2-2v-4a2,2,0,0,1,2-2h93A2,2,0,0,1,184.2,335.77Z" style="fill:#263238"></path><path d="M141.4,337.81H87.12s-17.24-28.68-17.24-76.07V244.33a13,13,0,0,1,13-13h23a12.94,12.94,0,0,1,13,12.59C119.47,268.38,123.07,321.26,141.4,337.81Z" style="fill:#263238"></path><path d="M129.46,337.81H89.58a4.13,4.13,0,0,1-3.67-2.22c-3.92-7.57-16-34.15-16-73.85V244.33a13,13,0,0,1,13-13h19.89a13,13,0,0,1,13,12.59c.6,21.81,3.53,66.34,17.22,87.39A4.14,4.14,0,0,1,129.46,337.81Z" style="fill:#fff;opacity:0.2"></path><path d="M184.2,335.77v4a2,2,0,0,1-2,2h-41.7a2.74,2.74,0,0,1-2.73-2.73v-2.53a2.73,2.73,0,0,1,2.73-2.73h41.69A2,2,0,0,1,184.2,335.77Z" style="opacity:0.2;isolation:isolate"></path></g></svg>