<svg width="28" height="28" viewBox="0 0 28 28" fill="none" xmlns="http://www.w3.org/2000/svg">
<path opacity="0.4" d="M14 6.18559V24.8873C13.8017 24.8873 13.5917 24.8523 13.4284 24.7589L13.3817 24.7356C11.1417 23.5106 7.23337 22.2273 4.70171 21.8889L4.36337 21.8423C3.24337 21.7023 2.33337 20.6523 2.33337 19.5323V5.43892C2.33337 4.05059 3.46504 3.00059 4.85337 3.11725C7.30337 3.31559 11.0134 4.55226 13.09 5.84725L13.3817 6.02226C13.5567 6.12726 13.7784 6.18559 14 6.18559Z" fill="#6D8EBF"/>
<path d="M25.6666 5.44829V19.53C25.6666 20.65 24.7566 21.7 23.6366 21.84L23.2516 21.8866C20.7083 22.225 16.7883 23.52 14.5483 24.7566C14.3966 24.85 14.21 24.885 14 24.885V6.18329C14.2216 6.18329 14.4433 6.12495 14.6183 6.01995L14.8166 5.89162C16.8933 4.58495 20.615 3.33662 23.065 3.12662H23.135C24.5233 3.00995 25.6666 4.04829 25.6666 5.44829ZM9.04163 10.7776H6.41663C5.93829 10.7776 5.54163 10.381 5.54163 9.90262C5.54163 9.42429 5.93829 9.02762 6.41663 9.02762H9.04163C9.51996 9.02762 9.91663 9.42429 9.91663 9.90262C9.91663 10.381 9.51996 10.7776 9.04163 10.7776ZM9.91663 14.2776H6.41663C5.93829 14.2776 5.54163 13.881 5.54163 13.4026C5.54163 12.9243 5.93829 12.5276 6.41663 12.5276H9.91663C10.395 12.5276 10.7916 12.9243 10.7916 13.4026C10.7916 13.881 10.395 14.2776 9.91663 14.2776Z" fill="#6D8EBF"/>
</svg>
