<svg width="61" height="61" viewBox="0 0 61 61" fill="none" xmlns="http://www.w3.org/2000/svg">
<path opacity="0.5" d="M5.24414 40.7183C5.24414 33.6473 5.24414 30.1118 7.44084 27.915C9.63754 25.7183 13.1731 25.7183 20.2441 25.7183H40.2441C47.3151 25.7183 50.8506 25.7183 53.0474 27.915C55.2441 30.1118 55.2441 33.6473 55.2441 40.7183C55.2441 47.7893 55.2441 51.3248 53.0474 53.5215C50.8506 55.7183 47.3151 55.7183 40.2441 55.7183H20.2441C13.1731 55.7183 9.63754 55.7183 7.44084 53.5215C5.24414 51.3248 5.24414 47.7893 5.24414 40.7183Z" fill="#666666"/>
<path d="M17.1191 20.7183C17.1191 13.4695 22.9954 7.59326 30.2441 7.59326C37.4929 7.59326 43.3691 13.4695 43.3691 20.7183V25.7273C44.7876 25.7405 46.0279 25.7733 47.1191 25.8548V20.7183C47.1191 11.3985 39.5639 3.84326 30.2441 3.84326C20.9243 3.84326 13.3691 11.3985 13.3691 20.7183V25.8548C14.4604 25.7733 15.7007 25.7405 17.1191 25.7273V20.7183Z" fill="#666666"/>
</svg>
