<svg width="32" height="32" viewBox="0 0 32 32" fill="none" xmlns="http://www.w3.org/2000/svg">
<path opacity="0.4" d="M25.7868 19.3173L24.4534 17.104C24.1734 16.6107 23.9201 15.6773 23.9201 15.1307V11.7573C23.9201 7.41068 20.3868 3.86401 16.0268 3.86401C11.6668 3.86401 8.13342 7.41068 8.13342 11.7573V15.1307C8.13342 15.6773 7.88009 16.6107 7.60009 17.0907L6.25342 19.3173C5.72009 20.2107 5.60009 21.1973 5.93342 22.104C6.25342 22.9973 7.01342 23.6907 8.00009 24.024C10.5868 24.904 13.3068 25.3307 16.0268 25.3307C18.7468 25.3307 21.4668 24.904 24.0534 24.0373C24.9868 23.7307 25.7068 23.024 26.0534 22.104C26.4001 21.184 26.3068 20.1707 25.7868 19.3173Z" fill="#555555"/>
<path d="M19 4.42675C18.08 4.06675 17.08 3.86675 16.0267 3.86675C14.9867 3.86675 13.9867 4.05341 13.0667 4.42675C13.64 3.34675 14.7733 2.66675 16.0267 2.66675C17.2933 2.66675 18.4133 3.34675 19 4.42675ZM19.7733 26.6801C19.4929 27.4563 18.9804 28.1273 18.3053 28.6021C17.6302 29.0768 16.8253 29.3321 16 29.3334C14.9467 29.3334 13.9067 28.9067 13.1733 28.1467C12.7467 27.7467 12.4267 27.2134 12.24 26.6667C12.4133 26.6934 12.5867 26.7067 12.7733 26.7334C13.08 26.7734 13.4 26.8134 13.72 26.8401C14.48 26.9067 15.2533 26.9467 16.0267 26.9467C16.7867 26.9467 17.5467 26.9067 18.2933 26.8401C18.5733 26.8134 18.8533 26.8001 19.12 26.7601L19.7733 26.6801Z" fill="#555555"/>
</svg>
