<svg width="32" height="32" viewBox="0 0 32 32" fill="none" xmlns="http://www.w3.org/2000/svg">
<path opacity="0.4" d="M16.0001 29.3332C23.3641 29.3332 29.3334 23.3638 29.3334 15.9998C29.3334 8.63584 23.3641 2.6665 16.0001 2.6665C8.63608 2.6665 2.66675 8.63584 2.66675 15.9998C2.66675 23.3638 8.63608 29.3332 16.0001 29.3332Z" fill="#326CE5"/>
<path d="M22.2533 20.936L16.9199 8.936C16.5999 8.216 15.4133 8.216 15.0933 8.936L12.3999 15.0027H10.6666C10.1199 15.0027 9.66661 15.456 9.66661 16.0027C9.66661 16.5493 10.1199 17.0027 10.6666 17.0027H11.4933L9.74661 20.936C9.51995 21.4427 9.74661 22.0293 10.2533 22.256C10.7599 22.4827 11.3466 22.256 11.5733 21.7493L13.6799 17.016H15.9999C16.5466 17.016 16.9999 16.5627 16.9999 16.016C16.9999 15.4693 16.5466 15.016 15.9999 15.016H14.5733L15.9999 11.816L20.4133 21.7627C20.5733 22.136 20.9466 22.3627 21.3333 22.3627C21.4666 22.3627 21.6133 22.336 21.7333 22.2827C22.2399 22.0293 22.4666 21.4293 22.2533 20.936Z" fill="#326CE5"/>
</svg>
