<svg width="61" height="61" viewBox="0 0 61 61" fill="none" xmlns="http://www.w3.org/2000/svg">
<path opacity="0.4" d="M30.2441 55.7183C44.0511 55.7183 55.2441 44.5253 55.2441 30.7183C55.2441 16.9111 44.0511 5.71826 30.2441 5.71826C16.437 5.71826 5.24414 16.9111 5.24414 30.7183C5.24414 44.5253 16.437 55.7183 30.2441 55.7183Z" fill="#666666"/>
<path d="M30.7446 44.168C28.9946 44.168 27.2196 43.493 25.8946 42.168C24.5945 40.868 23.8695 39.143 23.8695 37.318C23.8695 35.493 24.5945 33.743 25.8946 32.468L29.4194 28.943C30.1444 28.218 31.3444 28.218 32.0694 28.943C32.7944 29.668 32.7944 30.868 32.0694 31.593L28.5446 35.118C27.9446 35.718 27.6196 36.493 27.6196 37.318C27.6196 38.143 27.9446 38.943 28.5446 39.518C29.7696 40.743 31.7446 40.743 32.9696 39.518L38.5196 33.968C41.6946 30.793 41.6946 25.6431 38.5196 22.4681C35.3446 19.2931 30.1946 19.2931 27.0196 22.4681L20.9694 28.518C19.6944 29.793 18.9945 31.468 18.9945 33.243C18.9945 35.018 19.6944 36.718 20.9694 37.968C21.6944 38.693 21.6944 39.893 20.9694 40.618C20.2444 41.343 19.0445 41.343 18.3195 40.618C16.3445 38.643 15.2695 36.018 15.2695 33.218C15.2695 30.418 16.3445 27.793 18.3195 25.818L24.3696 19.7681C28.9946 15.1431 36.5446 15.1431 41.1696 19.7681C45.7946 24.3931 45.7946 31.943 41.1696 36.568L35.6196 42.118C34.2696 43.493 32.5196 44.168 30.7446 44.168Z" fill="#666666"/>
</svg>
