<svg width="60" height="60" viewBox="0 0 60 60" fill="none" xmlns="http://www.w3.org/2000/svg">
<path opacity="0.4" d="M17.775 14.9002L40.325 7.3752C50.45 4.0002 55.95 9.5252 52.6 19.6502L45.075 42.2001C40.025 57.3751 31.725 57.3751 26.675 42.2001L24.45 35.5001L17.75 33.2751C2.6 28.2501 2.6 19.9752 17.775 14.9002Z" fill="#666666"/>
<path d="M30.3004 30.95C29.8254 30.95 29.3504 30.775 28.9754 30.4C28.2504 29.675 28.2504 28.475 28.9754 27.75L38.4754 18.2C39.2004 17.475 40.4004 17.475 41.1254 18.2C41.8504 18.925 41.8504 20.125 41.1254 20.85L31.6254 30.4C31.2504 30.75 30.7754 30.95 30.3004 30.95Z" fill="#666666"/>
</svg>
