<svg width="300" height="351" viewBox="0 0 300 351" fill="none" xmlns="http://www.w3.org/2000/svg">
<circle cx="150" cy="201" r="150" fill="url(#paint0_linear_2586_103)"/>
<rect x="125" y="236" width="50" height="15" rx="2" fill="#838181"/>
<path fill-rule="evenodd" clip-rule="evenodd" d="M192.153 155.89C210.283 142.2 222 120.468 222 96C222 54.5786 188.421 21 147 21C105.579 21 72 54.5786 72 96C72 122.051 85.282 145 105.444 158.444L115.759 212.5C116.479 216.272 119.778 219 123.618 219H176.077C180.051 219 183.423 216.082 183.994 212.148L192.153 155.89Z" fill="url(#paint1_linear_2586_103)"/>
<defs>
<linearGradient id="paint0_linear_2586_103" x1="150" y1="51" x2="150" y2="351" gradientUnits="userSpaceOnUse">
<stop stop-color="#898989"/>
<stop offset="1" stop-color="#202020"/>
</linearGradient>
<linearGradient id="paint1_linear_2586_103" x1="147" y1="21" x2="147" y2="219" gradientUnits="userSpaceOnUse">
<stop stop-color="#E9E8E8"/>
<stop offset="1" stop-color="#7A7A7A"/>
</linearGradient>
</defs>
</svg>
