<svg width="364" height="101" viewBox="0 0 364 101" fill="none" xmlns="http://www.w3.org/2000/svg">
<path d="M167.36 27.36C167.147 30.08 166.987 32.6933 166.88 35.2C166.827 37.7067 166.8 39.6267 166.8 40.96C166.8 42.1333 166.827 43.2533 166.88 44.32C166.933 45.3867 166.987 46.2933 167.04 47.04H165.2C164.347 42.56 163.253 39.0133 161.92 36.4C160.64 33.7867 159.093 31.9467 157.28 30.88C155.467 29.76 153.333 29.2 150.88 29.2H149.04V74.88C149.04 77.0133 149.253 78.6133 149.68 79.68C150.16 80.7467 151.013 81.4667 152.24 81.84C153.467 82.16 155.253 82.3467 157.6 82.4V84C155.947 83.9467 153.733 83.8933 150.96 83.84C148.24 83.7867 145.387 83.76 142.4 83.76C139.467 83.76 136.693 83.7867 134.08 83.84C131.467 83.8933 129.36 83.9467 127.76 84V82.4C130.16 82.3467 131.973 82.16 133.2 81.84C134.427 81.4667 135.253 80.7467 135.68 79.68C136.107 78.6133 136.32 77.0133 136.32 74.88V29.2H134.56C132.107 29.2 129.973 29.76 128.16 30.88C126.347 31.9467 124.8 33.7867 123.52 36.4C122.24 38.96 121.12 42.5067 120.16 47.04H118.32C118.427 46.2933 118.48 45.3867 118.48 44.32C118.533 43.2533 118.56 42.1333 118.56 40.96C118.56 39.6267 118.507 37.7067 118.4 35.2C118.347 32.6933 118.213 30.08 118 27.36C120.453 27.4133 123.12 27.4667 126 27.52C128.933 27.5733 131.867 27.6 134.8 27.6C137.733 27.6 140.373 27.6 142.72 27.6C145.12 27.6 147.76 27.6 150.64 27.6C153.573 27.6 156.507 27.5733 159.44 27.52C162.373 27.4667 165.013 27.4133 167.36 27.36ZM201.198 26.24C206.851 26.24 211.784 27.3867 215.998 29.68C220.264 31.9733 223.571 35.28 225.918 39.6C228.264 43.8667 229.438 49.0667 229.438 55.2C229.438 61.1733 228.238 66.4 225.838 70.88C223.438 75.36 220.078 78.8533 215.758 81.36C211.491 83.8667 206.611 85.12 201.118 85.12C195.464 85.12 190.504 83.9733 186.238 81.68C182.024 79.3867 178.744 76.08 176.398 71.76C174.051 67.44 172.878 62.24 172.878 56.16C172.878 50.1867 174.078 44.96 176.478 40.48C178.931 36 182.264 32.5067 186.478 30C190.744 27.4933 195.651 26.24 201.198 26.24ZM200.878 27.68C197.891 27.68 195.278 28.88 193.038 31.28C190.851 33.68 189.144 36.9867 187.918 41.2C186.744 45.4133 186.158 50.2933 186.158 55.84C186.158 61.4933 186.824 66.4267 188.158 70.64C189.544 74.8 191.384 78.0267 193.678 80.32C196.024 82.56 198.611 83.68 201.438 83.68C204.424 83.68 207.011 82.48 209.198 80.08C211.438 77.68 213.144 74.3733 214.318 70.16C215.544 65.8933 216.158 61.0133 216.158 55.52C216.158 49.8133 215.464 44.88 214.078 40.72C212.744 36.56 210.904 33.36 208.558 31.12C206.264 28.8267 203.704 27.68 200.878 27.68ZM234.97 27.36C236.303 27.4133 238.09 27.4667 240.33 27.52C242.623 27.5733 244.89 27.6 247.13 27.6C249.69 27.6 252.17 27.5733 254.57 27.52C256.97 27.4667 258.677 27.44 259.69 27.44C264.65 27.44 268.757 28 272.01 29.12C275.317 30.1867 277.77 31.76 279.37 33.84C281.023 35.92 281.85 38.4267 281.85 41.36C281.85 43.1733 281.477 45.0133 280.73 46.88C279.983 48.6933 278.703 50.4 276.89 52C275.13 53.5467 272.703 54.8 269.61 55.76C266.517 56.6667 262.623 57.12 257.93 57.12H250.25V55.52H257.13C260.277 55.52 262.65 54.9333 264.25 53.76C265.903 52.5333 267.023 50.9333 267.61 48.96C268.25 46.9333 268.57 44.6933 268.57 42.24C268.57 38.0267 267.823 34.7733 266.33 32.48C264.837 30.1333 262.277 28.96 258.65 28.96C256.57 28.96 255.21 29.4133 254.57 30.32C253.983 31.2267 253.69 33.0667 253.69 35.84V75.52C253.69 77.44 253.823 78.88 254.09 79.84C254.41 80.8 254.997 81.44 255.85 81.76C256.703 82.08 257.983 82.2933 259.69 82.4V84C258.25 83.8933 256.437 83.84 254.25 83.84C252.063 83.7867 249.85 83.76 247.61 83.76C245.05 83.76 242.623 83.7867 240.33 83.84C238.09 83.84 236.303 83.8933 234.97 84V82.4C236.677 82.2933 237.957 82.08 238.81 81.76C239.663 81.44 240.223 80.8 240.49 79.84C240.81 78.88 240.97 77.44 240.97 75.52V35.84C240.97 33.8667 240.81 32.4267 240.49 31.52C240.223 30.56 239.637 29.92 238.73 29.6C237.877 29.2267 236.623 29.0133 234.97 28.96V27.36ZM250.09 55.76C252.383 55.8133 254.357 55.92 256.01 56.08C257.717 56.24 259.21 56.4 260.49 56.56C261.77 56.6667 262.917 56.7467 263.93 56.8C268.783 57.2267 272.357 58.2667 274.65 59.92C276.997 61.5733 278.517 64.0533 279.21 67.36L281.05 75.6C281.53 77.7333 282.037 79.2267 282.57 80.08C283.103 80.9333 283.877 81.36 284.89 81.36C285.583 81.3067 286.143 81.1467 286.57 80.88C287.05 80.56 287.557 80.1067 288.09 79.52L289.21 80.48C287.77 82.1333 286.223 83.3067 284.57 84C282.917 84.7467 280.917 85.12 278.57 85.12C275.69 85.12 273.317 84.5067 271.45 83.28C269.583 82.0533 268.357 79.7867 267.77 76.48L266.33 68.48C265.957 66.24 265.503 64.2933 264.97 62.64C264.437 60.9333 263.69 59.6 262.73 58.64C261.823 57.6267 260.543 57.12 258.89 57.12H250.25L250.09 55.76ZM348.761 83.04L350.201 83.44C349.774 86.3733 349.107 88.88 348.201 90.96C347.294 93.0933 346.121 94.7467 344.681 95.92C343.561 96.8267 342.094 97.5733 340.281 98.16C338.521 98.7467 336.547 99.04 334.361 99.04C331.427 99.04 328.547 98.5867 325.721 97.68C322.947 96.7733 320.121 95.6533 317.241 94.32C314.361 93.04 311.321 91.7867 308.121 90.56C307.747 90.4533 307.374 90.32 307.001 90.16C306.681 90.0533 306.414 90 306.201 90C305.187 90.48 304.067 90.88 302.841 91.2C301.667 91.52 300.547 91.68 299.481 91.68C298.414 91.68 297.507 91.52 296.761 91.2C296.067 90.88 295.721 90.3467 295.721 89.6C295.721 88.16 297.187 87.44 300.121 87.44C301.987 87.44 304.014 87.8133 306.201 88.56C308.174 88.0267 309.854 87.4133 311.241 86.72C312.681 86.08 314.147 85.4667 315.641 84.88C317.187 84.2933 319.054 83.92 321.241 83.76L321.321 85.04C319.614 85.2 318.147 85.4933 316.921 85.92C315.747 86.4 314.547 86.9067 313.321 87.44C312.094 87.9733 310.654 88.48 309.001 88.96C312.787 89.2267 316.307 89.4933 319.561 89.76C322.814 90.08 325.827 90.2667 328.601 90.32C331.374 90.4267 333.881 90.32 336.121 90C339.427 89.6267 342.041 88.9067 343.961 87.84C345.881 86.7733 347.481 85.1733 348.761 83.04ZM319.401 26.24C325.054 26.24 329.987 27.3867 334.201 29.68C338.467 31.9733 341.774 35.28 344.121 39.6C346.467 43.8667 347.641 49.0667 347.641 55.2C347.641 61.1733 346.441 66.4 344.041 70.88C341.641 75.36 338.281 78.8533 333.961 81.36C329.694 83.8667 324.814 85.12 319.321 85.12C313.667 85.12 308.707 83.9733 304.441 81.68C300.227 79.3867 296.947 76.08 294.601 71.76C292.254 67.44 291.081 62.24 291.081 56.16C291.081 50.1867 292.281 44.96 294.681 40.48C297.134 36 300.467 32.5067 304.681 30C308.947 27.4933 313.854 26.24 319.401 26.24ZM319.081 27.68C316.094 27.68 313.481 28.88 311.241 31.28C309.054 33.68 307.347 36.9867 306.121 41.2C304.947 45.4133 304.361 50.2933 304.361 55.84C304.361 61.4933 305.027 66.4267 306.361 70.64C307.747 74.8 309.587 78.0267 311.881 80.32C314.227 82.56 316.814 83.68 319.641 83.68C322.627 83.68 325.214 82.48 327.401 80.08C329.641 77.68 331.347 74.3733 332.521 70.16C333.747 65.8933 334.361 61.0133 334.361 55.52C334.361 49.8133 333.667 44.88 332.281 40.72C330.947 36.56 329.107 33.36 326.761 31.12C324.467 28.8267 321.907 27.68 319.081 27.68Z" fill="#666666"/>
<g clip-path="url(#clip0_2586_120)">
<path d="M42.735 99.9999C66.337 99.9999 85.4701 80.8667 85.4701 57.2648C85.4701 33.6629 66.337 14.5298 42.735 14.5298C19.1331 14.5298 0 33.6629 0 57.2648C0 80.8667 19.1331 99.9999 42.735 99.9999Z" fill="url(#paint0_linear_2586_120)"/>
<path d="M49.2885 67.2363H36.1831C35.8684 67.2363 35.6133 67.4914 35.6133 67.8061V70.94C35.6133 71.2547 35.8684 71.5098 36.1831 71.5098H49.2885C49.6032 71.5098 49.8583 71.2547 49.8583 70.94V67.8061C49.8583 67.4914 49.6032 67.2363 49.2885 67.2363Z" fill="#838181"/>
<path fill-rule="evenodd" clip-rule="evenodd" d="M54.7433 44.4131C59.9086 40.5128 63.2468 34.3214 63.2468 27.3504C63.2468 15.5495 53.6801 5.98291 41.8792 5.98291C30.0784 5.98291 20.5117 15.5495 20.5117 27.3504C20.5117 34.7724 24.2958 41.3105 30.0399 45.1407L32.9787 60.5413C33.1838 61.616 34.1237 62.3932 35.2177 62.3932H50.1633C51.2955 62.3932 52.2562 61.5618 52.4188 60.441L54.7433 44.4131Z" fill="url(#paint1_linear_2586_120)"/>
</g>
<defs>
<linearGradient id="paint0_linear_2586_120" x1="42.735" y1="14.5298" x2="42.735" y2="99.9999" gradientUnits="userSpaceOnUse">
<stop stop-color="#898989"/>
<stop offset="1" stop-color="#202020"/>
</linearGradient>
<linearGradient id="paint1_linear_2586_120" x1="41.8792" y1="5.98291" x2="41.8792" y2="62.3932" gradientUnits="userSpaceOnUse">
<stop stop-color="#E9E8E8"/>
<stop offset="1" stop-color="#7A7A7A"/>
</linearGradient>
<clipPath id="clip0_2586_120">
<rect width="85.4701" height="100" fill="white"/>
</clipPath>
</defs>
</svg>
