<svg width="200" height="200" viewBox="0 0 200 200" fill="none" xmlns="http://www.w3.org/2000/svg">
<path d="M88 6.9282C95.4256 2.64102 104.574 2.64102 112 6.9282L174.603 43.0718C182.028 47.359 186.603 55.282 186.603 63.8564V136.144C186.603 144.718 182.028 152.641 174.603 156.928L112 193.072C104.574 197.359 95.4256 197.359 88 193.072L25.3975 156.928C17.9718 152.641 13.3975 144.718 13.3975 136.144V63.8564C13.3975 55.282 17.9718 47.359 25.3975 43.0718L88 6.9282Z" fill="#484848"/>
<path d="M80.7812 119.23C69.2969 112.586 61.5625 100.164 61.5625 85.9375C61.5625 64.7148 78.7773 47.5 100 47.5C121.223 47.5 138.438 64.7148 138.438 85.9375C138.438 100.164 130.703 112.586 119.219 119.23V132.812C119.219 134.887 117.543 136.562 115.469 136.562H84.5312C82.457 136.562 80.7812 134.887 80.7812 132.812V119.23ZM85.9375 144.062H114.062C114.578 144.062 115 144.484 115 145V148.75C115 150.824 113.324 152.5 111.25 152.5H88.75C86.6758 152.5 85 150.824 85 148.75V145C85 144.484 85.4219 144.062 85.9375 144.062Z" fill="white"/>
</svg>
