<svg width="534" height="200" viewBox="0 0 534 200" fill="none" xmlns="http://www.w3.org/2000/svg">
<path d="M285.2 61.2C284.933 64.6 284.733 67.8667 284.6 71C284.533 74.1333 284.5 76.5333 284.5 78.2C284.5 79.6667 284.533 81.0667 284.6 82.4C284.667 83.7333 284.733 84.8667 284.8 85.8H282.5C281.433 80.2 280.067 75.7667 278.4 72.5C276.8 69.2333 274.867 66.9333 272.6 65.6C270.333 64.2 267.667 63.5 264.6 63.5H262.3V120.6C262.3 123.267 262.567 125.267 263.1 126.6C263.7 127.933 264.767 128.833 266.3 129.3C267.833 129.7 270.067 129.933 273 130V132C270.933 131.933 268.167 131.867 264.7 131.8C261.3 131.733 257.733 131.7 254 131.7C250.333 131.7 246.867 131.733 243.6 131.8C240.333 131.867 237.7 131.933 235.7 132V130C238.7 129.933 240.967 129.7 242.5 129.3C244.033 128.833 245.067 127.933 245.6 126.6C246.133 125.267 246.4 123.267 246.4 120.6V63.5H244.2C241.133 63.5 238.467 64.2 236.2 65.6C233.933 66.9333 232 69.2333 230.4 72.5C228.8 75.7 227.4 80.1333 226.2 85.8H223.9C224.033 84.8667 224.1 83.7333 224.1 82.4C224.167 81.0667 224.2 79.6667 224.2 78.2C224.2 76.5333 224.133 74.1333 224 71C223.933 67.8667 223.767 64.6 223.5 61.2C226.567 61.2667 229.9 61.3333 233.5 61.4C237.167 61.4667 240.833 61.5 244.5 61.5C248.167 61.5 251.467 61.5 254.4 61.5C257.4 61.5 260.7 61.5 264.3 61.5C267.967 61.5 271.633 61.4667 275.3 61.4C278.967 61.3333 282.267 61.2667 285.2 61.2ZM327.497 59.8C334.564 59.8 340.73 61.2333 345.997 64.1C351.33 66.9667 355.464 71.1 358.397 76.5C361.33 81.8333 362.797 88.3333 362.797 96C362.797 103.467 361.297 110 358.297 115.6C355.297 121.2 351.097 125.567 345.697 128.7C340.364 131.833 334.264 133.4 327.397 133.4C320.33 133.4 314.13 131.967 308.797 129.1C303.53 126.233 299.43 122.1 296.497 116.7C293.564 111.3 292.097 104.8 292.097 97.2C292.097 89.7333 293.597 83.2 296.597 77.6C299.664 72 303.83 67.6333 309.097 64.5C314.43 61.3667 320.564 59.8 327.497 59.8ZM327.097 61.6C323.364 61.6 320.097 63.1 317.297 66.1C314.564 69.1 312.43 73.2333 310.897 78.5C309.43 83.7667 308.697 89.8667 308.697 96.8C308.697 103.867 309.53 110.033 311.197 115.3C312.93 120.5 315.23 124.533 318.097 127.4C321.03 130.2 324.264 131.6 327.797 131.6C331.53 131.6 334.764 130.1 337.497 127.1C340.297 124.1 342.43 119.967 343.897 114.7C345.43 109.367 346.197 103.267 346.197 96.4C346.197 89.2667 345.33 83.1 343.597 77.9C341.93 72.7 339.63 68.7 336.697 65.9C333.83 63.0333 330.63 61.6 327.097 61.6ZM369.713 61.2C371.379 61.2667 373.613 61.3333 376.413 61.4C379.279 61.4667 382.113 61.5 384.913 61.5C388.113 61.5 391.213 61.4667 394.213 61.4C397.213 61.3333 399.346 61.3 400.613 61.3C406.813 61.3 411.946 62 416.013 63.4C420.146 64.7333 423.213 66.7 425.213 69.3C427.279 71.9 428.313 75.0333 428.313 78.7C428.313 80.9667 427.846 83.2667 426.913 85.6C425.979 87.8667 424.379 90 422.113 92C419.913 93.9333 416.879 95.5 413.013 96.7C409.146 97.8333 404.279 98.4 398.413 98.4H388.813V96.4H397.413C401.346 96.4 404.313 95.6667 406.313 94.2C408.379 92.6667 409.779 90.6667 410.513 88.2C411.313 85.6667 411.713 82.8667 411.713 79.8C411.713 74.5333 410.779 70.4667 408.913 67.6C407.046 64.6667 403.846 63.2 399.313 63.2C396.713 63.2 395.013 63.7667 394.213 64.9C393.479 66.0333 393.113 68.3333 393.113 71.8V121.4C393.113 123.8 393.279 125.6 393.613 126.8C394.013 128 394.746 128.8 395.813 129.2C396.879 129.6 398.479 129.867 400.613 130V132C398.813 131.867 396.546 131.8 393.813 131.8C391.079 131.733 388.313 131.7 385.513 131.7C382.313 131.7 379.279 131.733 376.413 131.8C373.613 131.8 371.379 131.867 369.713 132V130C371.846 129.867 373.446 129.6 374.513 129.2C375.579 128.8 376.279 128 376.613 126.8C377.013 125.6 377.213 123.8 377.213 121.4V71.8C377.213 69.3333 377.013 67.5333 376.613 66.4C376.279 65.2 375.546 64.4 374.413 64C373.346 63.5333 371.779 63.2667 369.713 63.2V61.2ZM388.613 96.7C391.479 96.7667 393.946 96.9 396.013 97.1C398.146 97.3 400.013 97.5 401.613 97.7C403.213 97.8333 404.646 97.9333 405.913 98C411.979 98.5333 416.446 99.8333 419.313 101.9C422.246 103.967 424.146 107.067 425.013 111.2L427.313 121.5C427.913 124.167 428.546 126.033 429.213 127.1C429.879 128.167 430.846 128.7 432.113 128.7C432.979 128.633 433.679 128.433 434.213 128.1C434.813 127.7 435.446 127.133 436.113 126.4L437.513 127.6C435.713 129.667 433.779 131.133 431.713 132C429.646 132.933 427.146 133.4 424.213 133.4C420.613 133.4 417.646 132.633 415.313 131.1C412.979 129.567 411.446 126.733 410.713 122.6L408.913 112.6C408.446 109.8 407.879 107.367 407.213 105.3C406.546 103.167 405.613 101.5 404.413 100.3C403.279 99.0333 401.679 98.4 399.613 98.4H388.813L388.613 96.7ZM511.951 130.8L513.751 131.3C513.217 134.967 512.384 138.1 511.251 140.7C510.117 143.367 508.651 145.433 506.851 146.9C505.451 148.033 503.617 148.967 501.351 149.7C499.151 150.433 496.684 150.8 493.951 150.8C490.284 150.8 486.684 150.233 483.151 149.1C479.684 147.967 476.151 146.567 472.551 144.9C468.951 143.3 465.151 141.733 461.151 140.2C460.684 140.067 460.217 139.9 459.751 139.7C459.351 139.567 459.017 139.5 458.751 139.5C457.484 140.1 456.084 140.6 454.551 141C453.084 141.4 451.684 141.6 450.351 141.6C449.017 141.6 447.884 141.4 446.951 141C446.084 140.6 445.651 139.933 445.651 139C445.651 137.2 447.484 136.3 451.151 136.3C453.484 136.3 456.017 136.767 458.751 137.7C461.217 137.033 463.317 136.267 465.051 135.4C466.851 134.6 468.684 133.833 470.551 133.1C472.484 132.367 474.817 131.9 477.551 131.7L477.651 133.3C475.517 133.5 473.684 133.867 472.151 134.4C470.684 135 469.184 135.633 467.651 136.3C466.117 136.967 464.317 137.6 462.251 138.2C466.984 138.533 471.384 138.867 475.451 139.2C479.517 139.6 483.284 139.833 486.751 139.9C490.217 140.033 493.351 139.9 496.151 139.5C500.284 139.033 503.551 138.133 505.951 136.8C508.351 135.467 510.351 133.467 511.951 130.8ZM475.251 59.8C482.317 59.8 488.484 61.2333 493.751 64.1C499.084 66.9667 503.217 71.1 506.151 76.5C509.084 81.8333 510.551 88.3333 510.551 96C510.551 103.467 509.051 110 506.051 115.6C503.051 121.2 498.851 125.567 493.451 128.7C488.117 131.833 482.017 133.4 475.151 133.4C468.084 133.4 461.884 131.967 456.551 129.1C451.284 126.233 447.184 122.1 444.251 116.7C441.317 111.3 439.851 104.8 439.851 97.2C439.851 89.7333 441.351 83.2 444.351 77.6C447.417 72 451.584 67.6333 456.851 64.5C462.184 61.3667 468.317 59.8 475.251 59.8ZM474.851 61.6C471.117 61.6 467.851 63.1 465.051 66.1C462.317 69.1 460.184 73.2333 458.651 78.5C457.184 83.7667 456.451 89.8667 456.451 96.8C456.451 103.867 457.284 110.033 458.951 115.3C460.684 120.5 462.984 124.533 465.851 127.4C468.784 130.2 472.017 131.6 475.551 131.6C479.284 131.6 482.517 130.1 485.251 127.1C488.051 124.1 490.184 119.967 491.651 114.7C493.184 109.367 493.951 103.267 493.951 96.4C493.951 89.2667 493.084 83.1 491.351 77.9C489.684 72.7 487.384 68.7 484.451 65.9C481.584 63.0333 478.384 61.6 474.851 61.6Z" fill="white"/>
<path d="M88 6.9282C95.4256 2.64102 104.574 2.64102 112 6.9282L174.603 43.0718C182.028 47.359 186.603 55.282 186.603 63.8564V136.144C186.603 144.718 182.028 152.641 174.603 156.928L112 193.072C104.574 197.359 95.4256 197.359 88 193.072L25.3975 156.928C17.9718 152.641 13.3975 144.718 13.3975 136.144V63.8564C13.3975 55.282 17.9718 47.359 25.3975 43.0718L88 6.9282Z" fill="#8D99B7"/>
<path d="M80.7812 119.23C69.2969 112.586 61.5625 100.164 61.5625 85.9375C61.5625 64.7148 78.7773 47.5 100 47.5C121.223 47.5 138.438 64.7148 138.438 85.9375C138.438 100.164 130.703 112.586 119.219 119.23V132.812C119.219 134.887 117.543 136.562 115.469 136.562H84.5312C82.457 136.562 80.7812 134.887 80.7812 132.812V119.23ZM85.9375 144.062H114.062C114.578 144.062 115 144.484 115 145V148.75C115 150.824 113.324 152.5 111.25 152.5H88.75C86.6758 152.5 85 150.824 85 148.75V145C85 144.484 85.4219 144.062 85.9375 144.062Z" fill="white"/>
</svg>
