<svg width="36" height="36" viewBox="0 0 36 36" fill="none" xmlns="http://www.w3.org/2000/svg">
<path opacity="0.4" d="M30.75 15.285H26.415C22.86 15.285 19.965 12.39 19.965 8.835V4.5C19.965 3.675 19.29 3 18.465 3H12.105C7.485 3 3.75 6 3.75 11.355V24.645C3.75 30 7.485 33 12.105 33H23.895C28.515 33 32.25 30 32.25 24.645V16.785C32.25 15.96 31.575 15.285 30.75 15.285Z" fill="#92B2FA"/>
<path d="M23.7 3.31523C23.085 2.70023 22.02 3.12023 22.02 3.97523V9.21023C22.02 11.4002 23.88 13.2152 26.145 13.2152C27.57 13.2302 29.55 13.2302 31.245 13.2302C32.1 13.2302 32.55 12.2252 31.95 11.6252C29.79 9.45023 25.92 5.53523 23.7 3.31523ZM20.25 20.6252H11.25C10.635 20.6252 10.125 20.1152 10.125 19.5002C10.125 18.8852 10.635 18.3752 11.25 18.3752H20.25C20.865 18.3752 21.375 18.8852 21.375 19.5002C21.375 20.1152 20.865 20.6252 20.25 20.6252ZM17.25 26.6252H11.25C10.635 26.6252 10.125 26.1152 10.125 25.5002C10.125 24.8852 10.635 24.3752 11.25 24.3752H17.25C17.865 24.3752 18.375 24.8852 18.375 25.5002C18.375 26.1152 17.865 26.6252 17.25 26.6252Z" fill="#92B2FA"/>
</svg>
