<svg width="32" height="32" viewBox="0 0 32 32" fill="none" xmlns="http://www.w3.org/2000/svg">
<path opacity="0.4" d="M27.3333 9.33317V19.9998H8.46663C6.37329 19.9998 4.66663 21.7065 4.66663 23.7998V9.33317C4.66663 3.99984 5.99996 2.6665 11.3333 2.6665H20.6666C26 2.6665 27.3333 3.99984 27.3333 9.33317Z" fill="#6D8EBF"/>
<path d="M27.3333 20.0002V24.6668C27.3333 27.2402 25.24 29.3335 22.6666 29.3335H9.33329C6.75996 29.3335 4.66663 27.2402 4.66663 24.6668V23.8002C4.66663 21.7068 6.37329 20.0002 8.46663 20.0002H27.3333ZM21.3333 10.3335H10.6666C10.12 10.3335 9.66663 9.88016 9.66663 9.3335C9.66663 8.78683 10.12 8.3335 10.6666 8.3335H21.3333C21.88 8.3335 22.3333 8.78683 22.3333 9.3335C22.3333 9.88016 21.88 10.3335 21.3333 10.3335ZM17.3333 15.0002H10.6666C10.12 15.0002 9.66663 14.5468 9.66663 14.0002C9.66663 13.4535 10.12 13.0002 10.6666 13.0002H17.3333C17.88 13.0002 18.3333 13.4535 18.3333 14.0002C18.3333 14.5468 17.88 15.0002 17.3333 15.0002Z" fill="#6D8EBF"/>
</svg>
