<svg width="32" height="32" viewBox="0 0 32 32" fill="none" xmlns="http://www.w3.org/2000/svg">
<path opacity="0.4" d="M21.6534 4.86377H10.3467C7.05339 4.86377 4.38672 7.54377 4.38672 10.8238V23.3704C4.38672 26.6504 7.06672 29.3304 10.3467 29.3304H21.6401C24.9334 29.3304 27.6001 26.6504 27.6001 23.3704V10.8238C27.6134 7.53044 24.9334 4.86377 21.6534 4.86377Z" fill="#6D8EBF"/>
<path d="M19.1333 2.6665H12.8667C11.48 2.6665 10.3467 3.7865 10.3467 5.17317V6.4265C10.3467 7.81317 11.4667 8.93317 12.8533 8.93317H19.1333C20.52 8.93317 21.64 7.81317 21.64 6.4265V5.17317C21.6533 3.7865 20.52 2.6665 19.1333 2.6665ZM14.4133 22.5998C14.16 22.5998 13.9067 22.5065 13.7067 22.3065L11.7067 20.3065C11.5207 20.1183 11.4164 19.8644 11.4164 19.5998C11.4164 19.3353 11.5207 19.0814 11.7067 18.8932C12.0933 18.5065 12.7333 18.5065 13.12 18.8932L14.4133 20.1865L19.04 15.5598C19.4267 15.1732 20.0667 15.1732 20.4533 15.5598C20.84 15.9465 20.84 16.5865 20.4533 16.9732L15.12 22.3065C14.9333 22.5065 14.6667 22.5998 14.4133 22.5998Z" fill="#6D8EBF"/>
</svg>
