<svg width="32" height="32" viewBox="0 0 32 32" fill="none" xmlns="http://www.w3.org/2000/svg">
<path opacity="0.4" d="M13.4266 3.75996L4.18661 11.16C3.14661 11.9866 2.47995 13.7333 2.70661 15.04L4.47995 25.6533C4.79995 27.5466 6.61328 29.08 8.53328 29.08H23.4666C25.3733 29.08 27.1999 27.5333 27.5199 25.6533L29.2933 15.04C29.5066 13.7333 28.8399 11.9866 27.8133 11.16L18.5733 3.7733C17.1466 2.62663 14.8399 2.62663 13.4266 3.75996Z" fill="#326CE5"/>
<path d="M16 20.6667C16.884 20.6667 17.7319 20.3155 18.357 19.6904C18.9821 19.0652 19.3333 18.2174 19.3333 17.3333C19.3333 16.4493 18.9821 15.6014 18.357 14.9763C17.7319 14.3512 16.884 14 16 14C15.1159 14 14.2681 14.3512 13.6429 14.9763C13.0178 15.6014 12.6666 16.4493 12.6666 17.3333C12.6666 18.2174 13.0178 19.0652 13.6429 19.6904C14.2681 20.3155 15.1159 20.6667 16 20.6667Z" fill="#326CE5"/>
</svg>
