<svg width="32" height="32" viewBox="0 0 32 32" fill="none" xmlns="http://www.w3.org/2000/svg">
<path d="M28.1213 9.30653C26.988 8.0532 25.0947 7.42653 22.348 7.42653H22.028V7.3732C22.028 5.1332 22.028 2.35986 17.0147 2.35986H14.988C9.97469 2.35986 9.97468 5.14653 9.97468 7.3732V7.43986H9.65469C6.89469 7.43986 5.01469 8.06653 3.88135 9.31986C2.56135 10.7865 2.60135 12.7599 2.73469 14.1065L2.74802 14.1999L2.88135 15.5999C2.89469 15.6132 2.92135 15.6399 2.94802 15.6532C3.38802 15.9465 3.84135 16.2399 4.32135 16.5065C4.50802 16.6265 4.70802 16.7332 4.90802 16.8399C7.18802 18.0932 9.69468 18.9332 12.2414 19.3465C12.3614 20.5999 12.908 22.0665 15.828 22.0665C18.748 22.0665 19.3214 20.6132 19.4147 19.3199C22.1347 18.8799 24.7613 17.9332 27.1347 16.5465C27.2147 16.5065 27.268 16.4665 27.3347 16.4265C27.948 16.0799 28.5214 15.7065 29.0814 15.2932C29.1098 15.2782 29.133 15.2549 29.148 15.2265L29.2013 14.7465L29.268 14.1199C29.2813 14.0399 29.2814 13.9732 29.2947 13.8799C29.4014 12.5332 29.3747 10.6932 28.1213 9.30653ZM17.4547 18.4399C17.4547 19.8532 17.4547 20.0665 15.8147 20.0665C14.1747 20.0665 14.1747 19.8132 14.1747 18.4532V16.7732H17.4547V18.4399ZM11.8814 7.42653V7.3732C11.8814 5.10653 11.8814 4.26653 14.988 4.26653H17.0147C20.1214 4.26653 20.1214 5.11986 20.1214 7.3732V7.43986H11.8814V7.42653Z" fill="#6D8EBF"/>
<path opacity="0.4" d="M27.3333 16.3973L27.1333 16.5173C24.7496 17.9025 22.1336 18.8423 19.4133 19.2906C19.3067 20.5706 18.7467 22.0373 15.8267 22.0373C12.9067 22.0373 12.3467 20.5839 12.24 19.3173C9.69334 18.9173 7.18667 18.0773 4.90667 16.8106C4.70667 16.7039 4.50667 16.5973 4.32 16.4773C3.84 16.2106 3.38667 15.9173 2.94667 15.6239C2.92 15.6106 2.89334 15.5839 2.88 15.5706L3.69334 24.2506C3.97334 26.9039 5.06667 29.6373 10.9333 29.6373H21.0933C26.96 29.6373 28.0533 26.9039 28.3333 24.2373L29.1733 15.1973C29.1583 15.2257 29.1351 15.2489 29.1067 15.2639C28.5333 15.6773 27.9467 16.0639 27.3333 16.3973Z" fill="#6D8EBF"/>
</svg>
