<svg width="167" height="150" viewBox="0 0 167 150" fill="none" xmlns="http://www.w3.org/2000/svg">
<g clip-path="url(#clip0_691_119)">
<path d="M83.3333 90.873C92.0998 90.873 99.2064 83.7664 99.2064 75C99.2064 66.2335 92.0998 59.127 83.3333 59.127C74.5669 59.127 67.4603 66.2335 67.4603 75C67.4603 83.7664 74.5669 90.873 83.3333 90.873Z" fill="white"/>
<path d="M83.3333 110.714C127.165 110.714 162.698 94.7244 162.698 74.9999C162.698 55.2755 127.165 39.2856 83.3333 39.2856C39.5012 39.2856 3.96826 55.2755 3.96826 74.9999C3.96826 94.7244 39.5012 110.714 83.3333 110.714Z" stroke="white" stroke-width="5"/>
<path d="M52.4039 92.8571C74.32 130.817 105.934 153.594 123.016 143.732C140.098 133.87 136.179 95.1026 114.263 57.1428C92.3468 19.1831 60.7327 -3.59444 43.6508 6.26779C26.569 16.13 30.4878 54.8974 52.4039 92.8571Z" stroke="white" stroke-width="5"/>
<path d="M52.4038 57.1429C30.4878 95.1026 26.5689 133.87 43.6508 143.732C60.7326 153.594 92.3467 130.817 114.263 92.8572C136.179 54.8974 140.098 16.1301 123.016 6.26786C105.934 -3.59437 74.3199 19.1832 52.4038 57.1429Z" stroke="white" stroke-width="5"/>
</g>
<defs>
<clipPath id="clip0_691_119">
<rect width="166.667" height="150" fill="white"/>
</clipPath>
</defs>
</svg>
