<?xml version="1.0" encoding="UTF-8"?>
<svg width="752pt" height="752pt" version="1.1" viewBox="0 0 752 752" xmlns="http://www.w3.org/2000/svg">
 <path d="m494.4 531.39h-59.199v-7.3984c0-5.8867-2.3398-11.535-6.5039-15.699-4.1602-4.1602-9.8086-6.5-15.695-6.5h-7.3984v-18.203c30.664-5.7031 58.871-20.594 80.879-42.695 4.3203-4.4375 8.3984-9.1055 12.207-13.988 3.7812-4.8633 5.3164-11.105 4.2188-17.168-0.96875-5.7422-4.1523-10.879-8.8711-14.297-4.7227-3.4141-10.594-4.8398-16.355-3.9648-5.7578 0.875-10.945 3.9805-14.438 8.6445-1.1836 1.5547-2.5156 3.1094-3.8477 4.5859l-10.508-10.508c20.695-24.809 27.555-58.352 18.258-89.293s-33.508-55.152-64.449-64.449c-30.941-9.2969-64.484-2.4375-89.297 18.254l-10.508-10.508c16.898-15.035 38.051-24.449 60.531-26.934 5.4961-0.55078 10.586-3.1328 14.281-7.2383 3.6953-4.1055 5.7266-9.4375 5.6992-14.961 0.027344-6.3516-2.6641-12.414-7.4023-16.648-4.5664-4.1289-10.672-6.1172-16.797-5.4766-35.156 3.8516-67.969 19.5-93.086 44.398-30.105 30.105-46.539 71.246-45.465 113.81 1.0781 42.562 19.57 82.82 51.16 111.36 20.949 19.012 46.777 31.824 74.59 37v18.277h-7.3984c-5.8867 0-11.535 2.3398-15.699 6.5-4.1602 4.1641-6.5 9.8125-6.5 15.699v7.3984h-59.199c-5.8867 0-11.535 2.3398-15.695 6.5039-4.1641 4.1602-6.5039 9.8086-6.5039 15.695v14.801c0 1.9609 0.78125 3.8438 2.168 5.2305 1.3867 1.3906 3.2695 2.168 5.2344 2.168h266.39c1.9648 0 3.8438-0.77734 5.2344-2.168 1.3867-1.3867 2.168-3.2695 2.168-5.2305v-14.801c0-5.8867-2.3398-11.535-6.5039-15.695-4.1641-4.1641-9.8086-6.5039-15.695-6.5039zm-201.94-272.68 10.508 10.508c-20.461 24.832-27.16 58.246-17.84 89.043s33.418 54.895 64.215 64.215c30.797 9.3164 64.211 2.6211 89.043-17.844l10.508 10.508h-0.003906c-28.598 24.203-67.477 32.344-103.38 21.648-35.91-10.695-63.996-38.785-74.691-74.691s-2.5547-74.785 21.645-103.39zm81.988-6.6602h0.003907c0.046875 1.7891-0.10156 3.5742-0.44531 5.3281-1.3516 0.58984-2.7656 1.0117-4.2188 1.2578-4.4219 0.26953-8.5664 2.25-11.551 5.5273-2.9844 3.2734-4.5742 7.582-4.4336 12.012 0 11.766 10.879 13.984 16.574 14.801h0.003906c3.168 0.44531 6.2305 1.4727 9.0273 3.0312 4.8086 3.4023 4.5859 4.0703 3.625 7.3984v0.003906c-1.3047 2.8711-1.6562 6.0898-1.0039 9.1758 0.65234 3.0898 2.2734 5.8906 4.6289 7.9883 10.508 9.5469 23.531 5.918 33.004 3.1836 4.0156-1.6016 8.3438-2.2617 12.652-1.9258 9.4727 3.7656 18.027 9.5195 25.086 16.875-0.47656 7.0469-1.8438 14.012-4.0703 20.719-2.6641-3.1367-6.3398-5.2422-10.395-5.957-4.0508-0.71484-8.2266 0.003906-11.805 2.0352l-2.1445 1.332c-1.0625 0.74219-2.2031 1.3633-3.4062 1.8477-0.96094-0.88672-1.7773-1.7773-2.5898-2.6641-1.8906-2.1133-4-4.0234-6.2891-5.6953-5.7227-4.0586-13.125-4.8984-19.609-2.2227-5.4961 2.3789-10.512 5.7383-14.797 9.918-4.0703 3.625-5.6992 4.8086-8.582 4.8086h-0.37109c-15.836 0-29.23 19.016-42.105 38.625-4.5781-3.0156-8.8438-6.4883-12.73-10.359 4.2031-2.1523 7.6953-5.4648 10.066-9.543 4.4336-9.1875 3.6406-20.039-2.0742-28.492-3.4766-6.957-1.4805-7.9922 0-8.9531l1.6289-0.8125c3.5742-1.7148 6.9258-3.8516 9.9883-6.3633 4.1367-4.0039 6.6055-9.4219 6.9219-15.168 0.31641-5.75-1.5469-11.402-5.2188-15.836-3.7656-6-9.7969-10.215-16.723-11.691-5.1562-1.2852-10.203-2.9648-15.094-5.0352 14.699-22.602 39.641-36.453 66.594-36.996-0.21875 0.73828-0.14453 1.332-0.14453 1.8477zm1.5547 160.95c-10.938 0.023438-21.766-2.1953-31.816-6.5117 8.8047-13.246 21.234-30.488 29.078-30.488 7.1523-0.097656 13.926-3.2148 18.648-8.582 3.0664-3.1016 6.6797-5.6094 10.656-7.3984 1.8203-0.81641 3.9414-0.58984 5.5508 0.58984 1.418 1.1133 2.7305 2.3516 3.9219 3.6992 1.5625 1.7461 3.2695 3.3555 5.1055 4.8125 3.082 1.7891 6.6445 2.582 10.195 2.2617 3.5547-0.31641 6.918-1.7305 9.6367-4.0391l1.1094-0.66406c0.73828-0.44531 3.1094-1.5547 8.2891 5.625l-0.003906-0.003907c-14.516 25.148-41.332 40.656-70.371 40.699zm-75.031-112.92c6.3477 2.8047 12.938 5.0312 19.684 6.6562 3.1836 1.0273 5.8398 3.2578 7.3984 6.2188 2.9414 3.0859 2.9414 7.9375 0 11.023-2.1523 1.6445-4.4844 3.0352-6.957 4.1445l-1.7031 0.96094c-4.957 2.6641-15.539 10.73-6.5117 28.637 3.4766 7.0312 4.293 11.395 2.6641 14.133l0.003906 0.003906c-1.5781 2.75-4.2812 4.6719-7.4023 5.2539-15.293-22.789-18.074-51.75-7.3984-77.031zm154.95 16.203c-5.7422-4.5273-12.195-8.0781-19.09-10.508-7.1484-1.5312-14.59-0.91406-21.387 1.7773-8.8789 2.5156-14.801 3.7734-19.09 0l0.51953-1.4805c1.4805-4.5156 4.6602-13.984-9.1758-23.754h-0.003906c-4.4883-2.8555-9.5312-4.7227-14.797-5.4766-1.6289-0.28125-3.2383-0.67578-4.8125-1.1836v-1.1836c1.4062-0.67578 2.9023-1.1484 4.4414-1.4062 3.457-0.21875 6.7656-1.4805 9.4844-3.6211 2.7227-2.1406 4.7305-5.0586 5.7578-8.3633 0.78906-3.043 1.1406-6.1836 1.0391-9.3242v-0.37109c16.492 2.625 31.777 10.262 43.785 21.867 12.004 11.609 20.148 26.633 23.328 43.027zm-220.51 18.797c-1.125-38.504 13.773-75.75 41.145-102.86 22.645-22.672 52.355-36.926 84.207-40.402h0.44531c1.6953-0.003907 3.332 0.63281 4.5859 1.7734 2.2969 1.9492 3.1836 5.0977 2.2383 7.957-0.94141 2.8594-3.5234 4.8633-6.5312 5.0664-30.648 3.5586-58.922 18.258-79.441 41.301-20.52 23.043-31.855 52.824-31.848 83.68 0.019531 33.176 13.141 65 36.508 88.543 23.371 23.547 55.094 36.906 88.266 37.176 33.172 0.26953 65.109-12.574 88.855-35.738 3.9531-3.8555 7.6602-7.9609 11.098-12.281 2.2422-3.1992 6.582-4.1055 9.918-2.0742 1.8477 1.1133 3.1172 2.9805 3.4766 5.1055 0.36719 1.9336-0.11719 3.9297-1.332 5.4766-3.418 4.457-7.125 8.6836-11.098 12.656-25.586 25.434-59.902 40.16-95.965 41.176-36.059 1.0195-71.152-11.75-98.129-35.703-28.758-25.75-45.555-62.266-46.398-100.86zm125.8 150.66c4.8828 0.44531 9.6953 0.66406 14.801 0.66406 5.1055 0 10.062 0 14.801-0.66406l-0.003907 16.059h-29.598zm-29.602 38.258c0-4.0859 3.3164-7.3984 7.4023-7.3984h73.996c1.9609 0 3.8438 0.77734 5.2305 2.1641 1.3906 1.3906 2.168 3.2695 2.168 5.2344v7.3984h-88.797zm170.19 37-251.59-0.003906v-7.3984c0-4.0859 3.3125-7.3984 7.3984-7.3984h236.79c1.9609 0 3.8438 0.77734 5.2305 2.168 1.3867 1.3867 2.168 3.2695 2.168 5.2305z" fill="#fff"/>
</svg>
