<?xml version="1.0" encoding="UTF-8"?>
<svg width="752pt" height="752pt" version="1.1" viewBox="0 0 752 752" xmlns="http://www.w3.org/2000/svg">
 <g fill="#ffa234">
  <path d="m455.56 425.73 33.625-12.785 5.6836-5.6836v-116.97c0-3.7891-2.8398-7.1055-7.1055-7.1055h-98.504c0 34.57-35.52 62.039-80.035 62.039-2.3672 0-4.7344 0-7.1055-0.47266-5.2109 2.3672-9.9453 4.7344-14.68 6.6289v29.836c2.8398-0.94531 6.1562-1.4219 9.4727-1.4219 12.785 0 24.625 7.1055 30.309 18.469 4.2617 8.0508 4.7344 17.523 1.8945 26.047-2.8398 8.5234-8.9961 15.629-17.051 19.891l-24.625 12.785v10.418c0 3.7891 3.3164 7.1055 7.1055 7.1055h143.97c-0.94531-1.4219-1.8945-3.3164-2.3672-4.7344-3.3164-8.5234-2.8398-17.996 0.94531-26.047 2.8398-8.0508 9.9453-14.68 18.469-17.996z"/>
  <path d="m269.45 318.7c-1.4219 4.2617-4.2617 9.4727-9.9453 16.102-3.3164 4.2617 0.47266 9.9453 5.6836 8.0508 10.418-3.7891 22.258-9.4727 33.625-14.68 3.3164 0.47266 6.6289 0.47266 10.418 0.47266 35.047 0 63.461-20.363 63.461-45.465 0-25.102-28.414-45.465-63.461-45.465-35.047 0-63.461 20.363-63.461 45.465 0 14.207 9 26.992 23.68 35.52zm71.039-44.043c4.7344 0 8.5234 3.7891 8.5234 8.5234 0 4.7344-3.7891 8.5234-8.5234 8.5234s-8.5234-3.7891-8.5234-8.5234c-0.003907-4.7344 3.7852-8.5234 8.5234-8.5234zm-31.258 0c4.7344 0 8.5234 3.7891 8.5234 8.5234 0 4.7344-3.7891 8.5234-8.5234 8.5234-4.7344 0-8.5234-3.7891-8.5234-8.5234 0-4.7344 3.7891-8.5234 8.5234-8.5234zm-31.258 0c4.7344 0 8.5234 3.7891 8.5234 8.5234 0 4.7344-3.7891 8.5234-8.5234 8.5234s-8.5234-3.7891-8.5234-8.5234c-0.47266-4.7344 3.7891-8.5234 8.5234-8.5234z"/>
  <path d="m593.85 396.84c-8.0508-19.418-37.887-16.574-49.254-12.785-5.2109 1.4219-8.5234 4.2617-12.312 8.0508-4.2617 4.2617-34.098 35.047-34.098 35.047l-36.938 14.207c-8.9961 3.3164-13.262 13.262-9.9453 22.258 2.8398 7.1055 9.4727 11.367 16.102 11.367 1.8945 0 4.2617-0.47266 6.1562-0.94531l40.727-15.629c2.3672-0.94531 4.7344-2.3672 6.1562-4.2617l2.8398-2.8398c0.47266 20.836 3.3164 55.883 3.7891 57.777 0.47266 2.8398 1.8945 5.2109 5.6836 5.2109h62.512c3.3164 0 5.2109-2.3672 5.6836-5.6836 0.003906-37.895 1.4258-90.938-7.1016-111.77z"/>
  <path d="m595.27 334.8c0 20.922-16.961 37.887-37.887 37.887-20.926 0-37.887-16.965-37.887-37.887 0-20.926 16.961-37.887 37.887-37.887 20.926 0 37.887 16.961 37.887 37.887"/>
  <path d="m312.07 406.31c-4.2617-8.5234-14.68-11.84-23.207-7.5781l-32.676 16.574s-17.996-12.312-23.68-16.574c-3.7891-2.8398-14.207-11.367-24.625-14.68-11.84-3.793-41.199-6.1602-49.727 12.785-8.5234 20.836-7.1016 73.879-6.6289 111.29 0 3.3164 2.3672 5.6836 5.6836 5.6836h62.512c3.7891 0 5.2109-1.8945 5.6836-5.2109 0.47266-1.8945 3.7891-44.988 3.7891-63.461v-6.6289l16.574 11.367c2.8398 1.8945 6.1562 2.8398 9.9453 2.8398 2.8398 0 5.2109-0.47266 8.0508-1.8945l41.676-21.312c7.5781-3.7852 10.895-14.203 6.6289-23.199z"/>
  <path d="m232.51 334.8c0 20.922-16.965 37.887-37.887 37.887-20.926 0-37.887-16.965-37.887-37.887 0-20.926 16.961-37.887 37.887-37.887 20.922 0 37.887 16.961 37.887 37.887"/>
 </g>
</svg>
