<svg width="280" height="280" viewBox="0 0 280 280" fill="none" xmlns="http://www.w3.org/2000/svg">
<path d="M41.5017 212.398C49.1177 230.982 61.5357 234.851 70.2666 230.982C87.1517 223.501 131.013 215.142 176.061 234.79C235.724 260.814 248.418 221.552 229.377 181.837C210.335 142.122 203.881 101.96 225.832 79.833C247.783 57.7059 219.058 23.091 168.045 59.1227C135.079 82.4076 110.885 77.2227 97.8935 70.6402C85.6491 64.4364 72.0318 57.9506 59.2738 63.0147C43.7933 69.1597 37.6935 82.4824 61.2464 112.245C94.6228 154.422 24.4294 170.74 41.5017 212.398Z" fill="#DCDDDD"/>
<path d="M72.5117 121.864H191.04V213.02C191.04 213.205 190.966 213.383 190.835 213.514C190.704 213.646 190.526 213.72 190.34 213.72H73.2117C73.0261 213.72 72.848 213.646 72.7167 213.514C72.5855 213.383 72.5117 213.205 72.5117 213.02V121.864Z" fill="#C1C1C2"/>
<path d="M161.305 86.1426H106.192L72.5117 121.864H191.04L161.305 86.1426Z" fill="#606060"/>
<path d="M83.7382 71.854L106.192 86.1427L72.5115 121.864L46.9961 102.472L83.7382 71.854Z" fill="#9E9E9E"/>
<path d="M183.758 71.854L161.305 86.1427L191.04 121.864L220.5 102.472L183.758 71.854Z" fill="#9E9E9E"/>
<path d="M120.671 72.5847C121.305 72.2842 121.798 71.7505 122.047 71.0951C122.297 70.4397 122.283 69.7133 122.009 69.0677L111.908 45.2498C111.765 44.9124 111.555 44.6075 111.291 44.3533C111.028 44.0991 110.715 43.9009 110.372 43.7706C110.03 43.6403 109.665 43.5806 109.298 43.5952C108.932 43.6097 108.573 43.6981 108.242 43.8551L106.296 44.7779C105.965 44.9349 105.669 45.1572 105.426 45.4315C105.183 45.7058 104.998 46.0264 104.882 46.374C104.766 46.7216 104.721 47.0891 104.751 47.4544C104.781 47.8196 104.884 48.175 105.055 48.4993L117.102 71.3944C117.428 72.015 117.982 72.4853 118.647 72.7072C119.312 72.929 120.038 72.8851 120.671 72.5847Z" fill="#606060"/>
<path d="M133.336 70.2755C133.794 70.2429 134.223 70.0343 134.531 69.6933C134.839 69.3523 135.004 68.9054 134.991 68.4459L134.492 51.4896C134.485 51.2494 134.429 51.0132 134.328 50.795C134.228 50.5769 134.084 50.3813 133.906 50.2201C133.727 50.059 133.518 49.9355 133.291 49.8572C133.064 49.7788 132.824 49.7472 132.584 49.7642L131.175 49.8646C130.935 49.8817 130.702 49.947 130.488 50.0567C130.274 50.1663 130.085 50.318 129.931 50.5027C129.778 50.6874 129.663 50.9012 129.594 51.1314C129.525 51.3615 129.504 51.6032 129.531 51.8419L131.439 68.6979C131.49 69.1548 131.716 69.5742 132.07 69.8682C132.424 70.1622 132.877 70.3082 133.336 70.2755V70.2755Z" fill="#606060"/>
<path d="M143.11 76.5437C144.372 77.2729 146.142 76.6037 147.125 75.0264L164.564 47.019C165.605 45.3458 165.359 43.3066 164.021 42.5331L162.156 41.4551C160.818 40.6815 158.927 41.4848 157.997 43.2223L142.423 72.3076C141.546 73.9457 141.849 75.8143 143.11 76.5437Z" fill="#606060"/>
</svg>
