<svg width="20" height="20" viewBox="0 0 20 20" fill="none" xmlns="http://www.w3.org/2000/svg">
<g clip-path="url(#clip0_730_82)">
<path d="M17.875 5.08333L10.375 1.33333L9.99998 1.25L9.62498 1.33333L2.12498 5.08333C2.11393 5.08333 2.10333 5.08772 2.09552 5.09554C2.0877 5.10335 2.08331 5.11395 2.08331 5.125L9.99998 9.125L17.9166 5.125C17.9166 5.11395 17.9123 5.10335 17.9044 5.09554C17.8966 5.08772 17.886 5.08333 17.875 5.08333ZM10.8333 10.5833V18.4167L17.875 14.8333C18.0169 14.7676 18.1362 14.6613 18.2178 14.5278C18.2994 14.3943 18.3396 14.2396 18.3333 14.0833V6.79167L10.8333 10.5833ZM1.66665 6.79167V14.0833C1.6604 14.2396 1.70059 14.3943 1.78217 14.5278C1.86374 14.6613 1.98303 14.7676 2.12498 14.8333L9.16665 18.4167V10.5833L1.66665 6.79167Z" fill="#fff"/>
</g>
<defs>
<clipPath id="clip0_730_82">
<rect width="20" height="20" fill="white"/>
</clipPath>
</defs>
</svg>
