<svg width="20" height="20" viewBox="0 0 20 20" fill="none" xmlns="http://www.w3.org/2000/svg">
<path d="M19.619 9.10734L10.8867 0.378216C10.3856 -0.126072 9.56882 -0.126072 9.06391 0.378216L7.25422 2.19103L9.55508 4.48876C10.0919 4.31004 10.7043 4.43002 11.1273 4.85682C11.5572 5.28675 11.6772 5.90477 11.4954 6.43842L13.7087 8.65492C14.2455 8.46933 14.8642 8.58993 15.2903 9.01923C15.8927 9.61788 15.8927 10.5877 15.2903 11.187C14.6917 11.7856 13.725 11.7856 13.1257 11.187C12.6764 10.7377 12.5627 10.074 12.787 9.52414L10.7136 7.46075V12.8992C10.8599 12.9711 10.9998 13.0685 11.1204 13.1891C11.716 13.7915 11.716 14.7576 11.1204 15.3569C10.5218 15.9555 9.5482 15.9555 8.94643 15.3569C8.34778 14.7582 8.34778 13.7915 8.94643 13.1891C9.09953 13.0392 9.26888 12.9286 9.45072 12.8542V7.36389C9.272 7.28578 9.0989 7.1783 8.94956 7.02895C8.49713 6.57653 8.38653 5.91289 8.62086 5.35611L6.36188 3.08463L0.37353 9.06985C-0.12451 9.57101 -0.12451 10.3877 0.37353 10.8927L9.10578 19.6218C9.61007 20.1261 10.4237 20.1261 10.9286 19.6218L19.6183 10.932C20.1226 10.4309 20.1226 9.61413 19.6183 9.10922L19.619 9.10734Z" fill="#fff"/>
</svg>
