<svg width="20" height="20" viewBox="0 0 20 20" fill="none" xmlns="http://www.w3.org/2000/svg">
<g clip-path="url(#clip0_730_80)">
<path d="M11.8593 2.2926L15.9718 4.66677C16.2968 4.3251 16.7551 4.11343 17.2626 4.11343C18.2468 4.11343 19.0443 4.91093 19.0443 5.8951C19.0443 6.72927 18.471 7.4301 17.6968 7.62343L17.6843 7.62594V12.3759C18.4751 12.5701 19.0526 13.2726 19.0526 14.1101C19.0526 15.0951 18.2543 15.8934 17.2693 15.8934C16.7385 15.8934 16.2626 15.6618 15.936 15.2943L15.9343 15.2926L11.8468 17.6526C11.9043 17.8209 11.9376 18.0143 11.9376 18.2151C11.9376 19.2001 11.1393 19.9984 10.1543 19.9984C9.16928 19.9984 8.37095 19.2001 8.37095 18.2151C8.37095 18.0351 8.39762 17.8609 8.44762 17.6976L8.44428 17.7101L4.32678 15.3401C4.00178 15.6793 3.54428 15.8901 3.03845 15.8901C2.05345 15.8901 1.25512 15.0918 1.25512 14.1068C1.25512 13.2718 1.82928 12.5701 2.60428 12.3768L2.61678 12.3743V7.6251C1.82428 7.4326 1.24512 6.72843 1.24512 5.8901C1.24512 4.9051 2.04345 4.10677 3.02845 4.10677C3.35845 4.10677 3.66845 4.19677 3.93345 4.35343L3.92512 4.34927C4.07845 4.4376 4.21012 4.54177 4.32428 4.6626L4.32512 4.66343L8.44012 2.28843C8.39345 2.13677 8.36678 1.9626 8.36678 1.78177C8.36678 0.797601 9.16512 -0.000732422 10.1493 -0.000732422C11.1334 -0.000732422 11.9318 0.797601 11.9318 1.78177C11.9318 1.96427 11.9043 2.1401 11.8534 2.30593L11.8568 2.29343L11.8593 2.2926ZM11.4301 3.02343C11.4143 3.04093 11.3993 3.05593 11.3826 3.07093L11.3818 3.07177L16.766 12.3968C16.7876 12.3893 16.8126 12.3834 16.8343 12.3776V7.62177C16.0526 7.42343 15.4835 6.7251 15.4835 5.8951C15.4835 5.7426 15.5026 5.59427 15.5385 5.4526L15.536 5.4651C15.541 5.4451 15.546 5.42427 15.5518 5.4051L11.4301 3.02343ZM8.91762 3.0726L8.86762 3.0226L4.74595 5.39927C4.79012 5.54677 4.81595 5.71677 4.81595 5.8926C4.81595 6.7001 4.27845 7.38177 3.54095 7.6001L3.52845 7.60343L3.46512 7.62094V12.3776L3.53512 12.3968L8.91928 3.07177L8.91762 3.0726ZM10.6476 3.4951C10.4985 3.53927 10.3276 3.5651 10.1509 3.5651C9.97428 3.5651 9.80345 3.53927 9.64178 3.49177L9.65428 3.4951L4.27095 12.8193C4.50928 13.0493 4.68428 13.3434 4.76845 13.6743L4.77095 13.6868H15.5301C15.6151 13.3426 15.791 13.0468 16.0293 12.8176L16.0301 12.8168L10.6501 3.4951H10.6476ZM11.4693 17.0176L15.5668 14.6526C15.5543 14.6134 15.5443 14.5743 15.5351 14.5343H4.76845L4.75095 14.6034L8.86678 16.9801C9.19178 16.6443 9.64678 16.4359 10.1501 16.4359C10.6718 16.4359 11.1409 16.6593 11.4676 17.0159L11.4693 17.0176Z" fill="#fff"/>
</g>
<defs>
<clipPath id="clip0_730_80">
<rect width="20" height="20" fill="white"/>
</clipPath>
</defs>
</svg>
