<svg width="20" height="20" viewBox="0 0 20 20" fill="none" xmlns="http://www.w3.org/2000/svg">
<path d="M17.3834 6.97504L11.6084 2.35837C10.7167 1.6417 9.27506 1.6417 8.39173 2.35004L2.61672 6.97504C1.96672 7.4917 1.55006 8.58337 1.69172 9.40004L2.80006 16.0334C3.00006 17.2167 4.13339 18.175 5.33339 18.175H14.6667C15.8584 18.175 17.0001 17.2084 17.2001 16.0334L18.3084 9.40004C18.4417 8.58337 18.0251 7.4917 17.3834 6.97504ZM10.0001 12.9167C9.44752 12.9167 8.91762 12.6972 8.52692 12.3065C8.13622 11.9158 7.91673 11.3859 7.91673 10.8334C7.91673 10.2808 8.13622 9.75093 8.52692 9.36023C8.91762 8.96953 9.44752 8.75004 10.0001 8.75004C10.5526 8.75004 11.0825 8.96953 11.4732 9.36023C11.8639 9.75093 12.0834 10.2808 12.0834 10.8334C12.0834 11.3859 11.8639 11.9158 11.4732 12.3065C11.0825 12.6972 10.5526 12.9167 10.0001 12.9167Z" fill="#fff"/>
</svg>
