<svg width="20" height="20" viewBox="0 0 20 20" fill="none" xmlns="http://www.w3.org/2000/svg">
<g clip-path="url(#clip0_730_74)">
<mask id="mask0_730_74" style="mask-type:luminance" maskUnits="userSpaceOnUse" x="0" y="0" width="20" height="20">
<path d="M20 0H0V20H20V0Z" fill="white"/>
</mask>
<g mask="url(#mask0_730_74)">
<path d="M9.34508 0.00538286C9.30208 0.00929291 9.16517 0.0229782 9.042 0.0327533C6.20137 0.288862 3.54057 1.82161 1.85532 4.17742C0.916908 5.4873 0.316716 6.97312 0.0899317 8.54692C0.00977517 9.09633 0 9.25858 0 10.0034C0 10.7483 0.00977517 10.9106 0.0899317 11.4599C0.633431 15.2156 3.30597 18.371 6.9306 19.5401C7.57967 19.7492 8.26393 19.892 9.042 19.978C9.34508 20.0112 10.6549 20.0112 10.958 19.978C12.3011 19.8294 13.4389 19.4971 14.5611 18.9242C14.7332 18.8363 14.7663 18.8128 14.7429 18.7933C14.7272 18.7815 13.9942 17.7982 13.1143 16.6095L11.5152 14.4492L9.51125 11.4834C8.40858 9.85292 7.50147 8.51958 7.49365 8.51958C7.48583 8.51758 7.47801 9.83533 7.47409 11.4443C7.46823 14.2615 7.46628 14.3749 7.43108 14.4413C7.38026 14.5372 7.34115 14.5763 7.25904 14.6193C7.19648 14.6506 7.14174 14.6564 6.84653 14.6564H6.50831L6.41838 14.5997C6.35972 14.5626 6.31672 14.5137 6.28739 14.457L6.24633 14.369L6.25024 10.4492L6.25611 6.52737L6.31672 6.45113C6.348 6.41008 6.41447 6.35729 6.46139 6.33187C6.54154 6.29277 6.57282 6.28887 6.91104 6.28887C7.30988 6.28887 7.37634 6.3045 7.47996 6.41789C7.50928 6.44917 8.59433 8.08358 9.8925 10.0523C11.1906 12.021 12.9658 14.7092 13.8378 16.0288L15.4213 18.4277L15.5015 18.3749C16.2112 17.9135 16.9619 17.2566 17.5562 16.5723C18.8211 15.1198 19.6363 13.3485 19.9101 11.4599C19.9902 10.9106 20 10.7483 20 10.0034C20 9.25858 19.9902 9.09633 19.9101 8.54692C19.3666 4.79131 16.694 1.63588 13.0694 0.466771C12.4301 0.259537 11.7498 0.11682 10.9873 0.0307983C10.7996 0.011248 9.50733 -0.0102574 9.34508 0.00538286ZM13.4389 6.05426C13.5327 6.10118 13.609 6.19111 13.6363 6.28495C13.652 6.33578 13.6559 7.42278 13.652 9.87242L13.6462 13.3876L13.0264 12.4374L12.4047 11.4873V8.93208C12.4047 7.28007 12.4125 6.35142 12.4242 6.30646C12.4555 6.19697 12.5239 6.11096 12.6178 6.06012C12.6979 6.01907 12.7273 6.01516 13.0342 6.01516C13.3236 6.01516 13.3744 6.01907 13.4389 6.05426Z" fill="#fff"/>
</g>
</g>
<defs>
<clipPath id="clip0_730_74">
<rect width="20" height="20" fill="white"/>
</clipPath>
</defs>
</svg>
