<svg width="20" height="20" viewBox="0 0 20 20" fill="none" xmlns="http://www.w3.org/2000/svg">
<path fill-rule="evenodd" clip-rule="evenodd" d="M18.6668 5.61708L10.0002 0.561523L1.3335 5.61708V14.3829L2.67528 15.1656L5.41702 14.0563C6.17244 13.7507 6.66688 13.0172 6.66688 12.2023V5.33333H8.00022V12.2023C8.00022 13.5605 7.17616 14.7828 5.91712 15.2923L4.13118 16.0149L10.0002 19.4384L18.6668 14.3829V5.61708ZM9.3335 8C9.3335 6.52724 10.5274 5.33333 12.0002 5.33333H13.5558C14.9058 5.33333 16.0002 6.42775 16.0002 7.77777V8H14.6668V7.77777C14.6668 7.16413 14.1694 6.66667 13.5558 6.66667H12.0002C11.2638 6.66667 10.6668 7.26363 10.6668 8C10.6668 8.73637 11.2638 9.33333 12.0002 9.33333H13.3335C14.8063 9.33333 16.0002 10.5272 16.0002 12C16.0002 13.4728 14.8063 14.6667 13.3335 14.6667H12.0002C10.5274 14.6667 9.3335 13.4728 9.3335 12H10.6668C10.6668 12.7364 11.2638 13.3333 12.0002 13.3333H13.3335C14.0699 13.3333 14.6668 12.7364 14.6668 12C14.6668 11.2636 14.0699 10.6667 13.3335 10.6667H12.0002C10.5274 10.6667 9.3335 9.47276 9.3335 8Z" fill="#fff"/>
</svg>
