<svg width="20" height="20" viewBox="0 0 20 20" fill="none" xmlns="http://www.w3.org/2000/svg">
<g clip-path="url(#clip0_730_68)">
<path d="M10 11.25C9.66848 11.25 9.35054 11.1183 9.11612 10.8839C8.8817 10.6494 8.75 10.3315 8.75 9.99998C8.75 9.66846 8.8817 9.35052 9.11612 9.1161C9.35054 8.88168 9.66848 8.74998 10 8.74998C10.3315 8.74998 10.6495 8.88168 10.8839 9.1161C11.1183 9.35052 11.25 9.66846 11.25 9.99998C11.25 10.3315 11.1183 10.6494 10.8839 10.8839C10.6495 11.1183 10.3315 11.25 10 11.25ZM9.56 13.745C9.70583 13.92 9.8525 14.09 10 14.2525C10.1475 14.09 10.2942 13.9208 10.44 13.745C10.1467 13.7512 9.8533 13.7512 9.56 13.745ZM7.8975 13.6408C7.25755 13.5742 6.62183 13.4718 5.99333 13.3341C5.93083 13.6258 5.88333 13.9092 5.85167 14.1808C5.69333 15.5 5.91417 16.3017 6.25 16.495C6.58583 16.6891 7.39 16.4791 8.45417 15.6833C8.67333 15.5191 8.89417 15.3367 9.11583 15.1375C8.68208 14.6617 8.27533 14.1621 7.8975 13.6408ZM14.0067 13.3341C13.4092 13.4675 12.7708 13.5708 12.1025 13.6408C11.7247 14.1621 11.3179 14.6617 10.8842 15.1375C11.1058 15.3375 11.3267 15.5191 11.5458 15.6833C12.61 16.4791 13.4142 16.6891 13.75 16.495C14.0858 16.3017 14.3058 15.5 14.1492 14.1808C14.1148 13.8966 14.0667 13.6141 14.0067 13.3341ZM15.215 13.0117C15.6958 15.2108 15.4433 16.9616 14.375 17.5783C13.3067 18.195 11.6642 17.5383 10 16.0225C8.33583 17.5383 6.69333 18.1942 5.625 17.5775C4.55667 16.9608 4.30417 15.2108 4.78417 13.0108C2.63917 12.3283 1.25 11.2333 1.25 9.99998C1.25 8.76665 2.63917 7.67248 4.78417 6.98832C4.30417 4.78915 4.55667 3.03832 5.625 2.42165C6.69333 1.80498 8.33583 2.46165 10 3.97748C11.6642 2.46165 13.3067 1.80582 14.375 2.42248C15.4433 3.03915 15.6958 4.78915 15.2158 6.98915C17.3608 7.67165 18.75 8.76665 18.75 9.99998C18.75 11.2333 17.3608 12.3275 15.2158 13.0117H15.215ZM9.115 4.86248C8.90308 4.67066 8.68257 4.48852 8.45417 4.31665C7.39 3.52082 6.58583 3.31082 6.25 3.50498C5.91417 3.69832 5.69417 4.49998 5.85083 5.81915C5.88417 6.09165 5.93083 6.37415 5.9925 6.66582C6.62127 6.52809 7.25727 6.42571 7.8975 6.35915C8.29333 5.81498 8.70167 5.31415 9.11583 4.86248H9.115ZM12.1025 6.35915C12.7708 6.42915 13.4092 6.53332 14.0067 6.66582C14.0692 6.37415 14.1167 6.09082 14.1483 5.81915C14.3067 4.49998 14.0858 3.69832 13.75 3.50498C13.4142 3.31082 12.61 3.52082 11.5458 4.31665C11.3171 4.4885 11.0964 4.67064 10.8842 4.86248C11.2983 5.31415 11.7067 5.81498 12.1025 6.35915ZM10.44 6.25498C10.2942 6.07998 10.1475 5.90998 10 5.74748C9.8525 5.90998 9.70583 6.07915 9.56 6.25498C9.8533 6.24876 10.1467 6.24876 10.44 6.25498ZM6.97667 12.2533C6.82463 12.0026 6.67793 11.7486 6.53667 11.4916C6.4575 11.7058 6.38417 11.9166 6.3175 12.1258C6.53167 12.1725 6.7525 12.215 6.97667 12.2533ZM8.58667 12.4483C9.52759 12.5182 10.4724 12.5182 11.4133 12.4483C11.9443 11.6683 12.4167 10.8499 12.8267 9.99998C12.4167 9.15005 11.9443 8.33169 11.4133 7.55165C10.4724 7.48176 9.52759 7.48176 8.58667 7.55165C8.05566 8.33169 7.58326 9.15005 7.17333 9.99998C7.58326 10.8499 8.05566 11.6683 8.58667 12.4483ZM13.4633 8.50832C13.5425 8.29415 13.6158 8.08332 13.6825 7.87415C13.464 7.82674 13.2445 7.78423 13.0242 7.74665C13.1759 7.99741 13.3223 8.25135 13.4633 8.50832ZM5.10833 8.19748C4.825 8.28915 4.55667 8.38915 4.305 8.49748C3.08417 9.02082 2.5 9.61248 2.5 9.99998C2.5 10.3875 3.08333 10.9791 4.305 11.5025C4.55667 11.6108 4.825 11.7108 5.10833 11.8025C5.29333 11.2191 5.5225 10.6142 5.79583 9.99998C5.53319 9.41246 5.30366 8.81068 5.10833 8.19748ZM6.31667 7.87415C6.38417 8.08248 6.4575 8.29415 6.53667 8.50748C6.67794 8.25079 6.82464 7.99712 6.97667 7.74665C6.75167 7.78498 6.53083 7.82748 6.31667 7.87415ZM14.8917 11.8025C15.175 11.7108 15.4433 11.6108 15.695 11.5025C16.9158 10.9791 17.5 10.3875 17.5 9.99998C17.5 9.61248 16.9167 9.02082 15.695 8.49748C15.4319 8.3854 15.1638 8.2853 14.8917 8.19748C14.7067 8.78082 14.4775 9.38582 14.2042 9.99998C14.4775 10.6142 14.7067 11.2183 14.8917 11.8025ZM13.6833 12.1258C13.6158 11.9175 13.5425 11.7058 13.4633 11.4925C13.3221 11.7492 13.1754 12.0028 13.0233 12.2533C13.2483 12.215 13.4692 12.1725 13.6833 12.1258Z" fill="#fff"/>
</g>
<defs>
<clipPath id="clip0_730_68">
<rect width="20" height="20" fill="white"/>
</clipPath>
</defs>
</svg>
